<?xml version="1.0" encoding="UTF-8" standalone="no"?>
<!-- Created with Inkscape (http://www.inkscape.org/) -->

<svg
   version="1.1"
   id="svg1"
   width="2500"
   height="700"
   viewBox="0 0 2500 700"
   xmlns:xlink="http://www.w3.org/1999/xlink"
   xmlns="http://www.w3.org/2000/svg"
   xmlns:svg="http://www.w3.org/2000/svg">
  <defs
     id="defs1">
    <linearGradient
       id="linearGradient3">
      <stop
         style="stop-color:#29b0d2;stop-opacity:1;"
         offset="0"
         id="stop3" />
      <stop
         style="stop-color:#01a2c4;stop-opacity:1;"
         offset="1"
         id="stop4" />
    </linearGradient>
    <linearGradient
       id="linearGradient1">
      <stop
         style="stop-color:#00a5c9;stop-opacity:1;"
         offset="0"
         id="stop1" />
      <stop
         style="stop-color:#f1faea;stop-opacity:1;"
         offset="1"
         id="stop2" />
    </linearGradient>
    <linearGradient
       xlink:href="#linearGradient1"
       id="linearGradient2"
       x1="-7.8899283"
       y1="289.95486"
       x2="943.83264"
       y2="289.95486"
       gradientUnits="userSpaceOnUse"
       spreadMethod="pad"
       gradientTransform="matrix(0.87020196,0,0,4.2620476,-55.166333,-2481.8546)" />
    <linearGradient
       xlink:href="#linearGradient3"
       id="linearGradient4"
       x1="-716.99725"
       y1="728.83209"
       x2="1106.5624"
       y2="728.83209"
       gradientUnits="userSpaceOnUse"
       gradientTransform="matrix(0.13892004,0,0,9.4844744,805.42955,-8165.0707)" />
  </defs>
  <g
     id="g1">
    <rect
       style="fill:url(#linearGradient2);stroke-width:1.04765"
       id="rect1"
       width="828.19086"
       height="2538.8574"
       x="-62.032158"
       y="-2515.4819"
       transform="rotate(90)" />
    <path
       fill="#fdf9e3"
       opacity="1"
       stroke="none"
       d="m 273.8846,234.81021 c -7.77517,6.30246 -15.45265,12.7301 -23.34109,18.88744 -59.16838,46.18381 -118.34113,92.36228 -177.600446,138.42926 -15.551597,12.08957 -31.399166,23.79899 -47.15935,35.61827 -1.054251,0.7906 -2.520754,1.03154 -4.967294,1.5362 -13.3940821,-7.8e-4 -25.6163891,-0.0102 -37.838694,-0.0184 0,-17.43597 0,-34.87196 0.421428,-52.74275 3.975193,1.68596 7.5289579,3.80676 11.4103969,6.12312 3.416139,-9.81599 6.542605,-18.79964 9.685526,-27.86815 0.01645,-0.0848 -0.14693,-0.14158 0.195834,-0.26811 0.578592,-0.54592 0.814422,-0.96529 1.324537,-1.58973 0.598924,-0.54528 0.808296,-0.94575 1.226398,-1.64543 0.637637,-0.96612 0.951272,-1.69327 1.653844,-2.68106 8.7640211,-13.89774 21.3465491,-22.81141 35.2035841,-31.00735 24.79709,-11.3021 49.07461,-10.39736 72.904326,0.87076 4.09646,-10.6535 7.8589,-20.43823 11.9635,-30.54216 6.66191,-9.03408 12.98166,-17.7491 19.26252,-26.50656 -0.0389,-0.0425 -0.0521,0.072 0.29478,-0.0661 0.60204,-0.55442 0.85713,-0.97066 1.0643,-1.3989 -0.048,-0.0113 -0.0212,0.0832 0.32822,-0.0463 0.6232,-0.52945 0.897,-0.92954 1.11875,-1.33532 -0.0521,-0.006 -0.0334,0.0974 0.3261,-0.0231 0.6255,-0.53479 0.89138,-0.94905 1.10376,-1.3699 -0.0535,-0.007 -0.0318,0.0991 0.33228,-0.0168 0.64,-0.52621 0.91597,-0.93663 1.14166,-1.30639 -0.0503,0.0407 0.0441,0.12899 0.46775,0.0271 1.48096,-1.06992 2.53835,-2.03802 4.04592,-3.16997 9.60125,-5.67455 18.75229,-11.18519 28.39715,-16.85608 10.47642,-2.91805 20.45902,-5.67583 31.08632,-8.29878 19.46002,-0.44273 38.10916,0.26912 55.94799,7.26544 z"
       id="path12"
       style="stroke-width:1.41134" />
    <path
       fill="#4cc1da"
       opacity="1"
       stroke="none"
       d="m 13.855739,435.88234 c -10.0766521,0.40907 -19.8168871,0.46136 -30.217568,0.47545 -0.660445,-1.99844 -0.660445,-3.95866 -0.660445,-6.50692 12.2223049,-0.57913 24.4446119,-0.57027 37.314994,-0.55479 -1.601474,2.08085 -3.851019,4.15518 -6.436981,6.58626 z"
       id="path60"
       style="stroke-width:1.41134" />
    <path
       fill="#9fe4eb"
       opacity="1"
       stroke="none"
       d="m 688.3343,163.81271 c 6.23783,-15.22593 13.2053,-35.10089 21.31276,-49.38952 l 55.26912,-31.060317 26.53857,-3.263715 c 39.36378,35.194172 49.50349,49.258542 57.48577,105.958152 0.6557,4.58171 -2.42245,10.16468 3.93605,11.9866 30.18423,8.80008 38.49427,25.16288 52.86662,49.98571 1.35181,3.94311 2.6671,7.38038 3.94388,11.42693 0.59395,5.40247 1.22648,10.19563 1.80524,15.29758 -0.0401,0.23052 0.0573,2.357 -0.0591,4.4816 -0.11615,3.45464 0.16815,6.30979 -0.22206,9.06955 -0.92456,6.53727 1.91068,9.73628 8.63117,10.54391 9.30725,5.17104 17.92508,10.79464 25.4708,18.26128 2.91657,3.42824 5.60638,6.44701 8.44438,9.77555 0.4191,0.69834 0.7758,0.97709 1.2205,1.1309 0,-0.0151 -0.039,0.0159 0.06,0.50423 1.5809,3.06624 3.4144,5.50688 4.484,8.24585 4.7202,12.08745 9.2205,24.26078 13.7834,37.05981 -0.031,1.36081 0.01,2.06971 -0.064,2.76823 -1.0764,10.88109 0.075,20.31404 11.0008,26.85997 6.5327,3.91406 11.55454,10.34996 17.4534,15.83651 -2.08056,-14.75411 6.0151,-26.2121 14.2359,-36.82101 5.3059,-6.84719 11.2944,-14.20459 21.2318,-16.27266 3.2367,-0.67368 5.7528,-4.81026 9.0859,-7.28345 11.8642,4.08895 19.3946,12.94258 27.4682,21.76505 1.4883,2.47015 2.7871,4.52626 4.287,7.03891 1.9611,4.84151 3.721,9.22639 5.6777,14.09398 1.3976,3.87987 2.5983,7.27711 4.0171,11.29124 11.0144,-7.10887 20.5994,-4.43235 29.8381,2.02698 1.7146,1.19883 3.5957,2.15935 5.6317,3.64312 4.875,7.71546 8.492,17.21074 20.0746,9.53001 0.6537,-0.43342 1.9704,-0.39594 2.7368,-0.0469 5.9952,2.73123 11.9314,5.59237 18.0938,8.84604 3.8775,4.29637 5.995,10.86495 13.0765,9.2236 13.8619,-3.21293 24.9113,1.67657 33.9562,11.65158 4.0598,4.47754 8.0618,5.79045 13.4743,3.38134 1.9211,-0.85515 3.9057,-2.03064 5.9136,-2.14486 7.2934,-0.41483 15.6697,-2.80846 21.6903,-0.11051 11.6609,5.22544 23.7198,6.6737 35.8019,9.10671 -3.3263,3.85998 -6.0753,9.23541 -9.9071,10.16955 -7.9172,1.93022 -16.4151,1.99141 -24.6674,1.92897 -17.4806,-0.13239 -34.9559,-1.18896 -52.4351,-1.24181 -57.1046,-0.17263 -114.21,-0.0741 -171.3151,-0.0517 -6.2522,0.003 -12.5083,0.0852 -18.755,0.32756 -3.4348,0.13323 -5.3767,1.76579 -3.8761,5.50583 1.3352,3.32767 2.7946,6.60556 3.7465,9.77482 -7.1524,-6.24063 -13.85226,-12.3506 -19.886,-18.46279 92.5528,-0.0448 184.4393,-0.0867 276.326,-0.13351 2.8197,-10e-4 5.6732,0.19348 8.4443,-0.18796 1.2936,-0.1781 2.4276,-1.51582 3.634,-2.32792 -1.0199,-1.05191 -1.906,-2.79713 -3.0852,-3.02476 -3.4332,-0.66295 -6.9836,-0.97145 -10.4884,-0.97546 -91.1812,-0.1043 -182.3625,-0.15855 -273.54376,-0.1775 -2.54914,-5.1e-4 -5.09824,0.48029 -8.11884,0.52146 -9.9496,-8.89963 -19.4279,-17.58402 -29.0952,-26.60503 -1.3048,-1.38506 -2.4206,-2.4336 -4.1157,-3.53763 -10.22083,4.04973 -20.05247,7.76419 -29.46467,12.34109 -19.96166,9.70685 -39.70486,19.8631 -59.88221,29.7589 -0.57233,-0.13493 -0.80007,-0.19381 -1.20467,-0.68473 -5.89792,-7.55328 -11.21636,-15.05791 -17.49354,-21.64959 -3.67892,-3.86334 -8.48508,-7.5606 -13.47463,-9.11128 -21.21303,-6.59284 -42.72944,-12.203 -64.03205,-18.51947 -5.97802,-1.77258 -12.54619,-3.56369 -17.23141,-7.34449 -21.8739,-17.65129 -43.12018,-36.07834 -64.75908,-54.02518 -3.4896,-2.89423 -7.82919,-4.76361 -12.08646,-7.38355 -1.59176,0.36097 -2.87297,0.99875 -4.15023,1.60161 0.004,-0.035 0.0702,-0.0113 -0.46563,-0.044 -2.0832,0.46945 -3.74034,0.76159 -5.16137,1.50507 -19.91113,10.41782 -39.87795,20.73477 -59.63897,31.43147 -9.62339,5.20921 -18.84781,11.15554 -28.25282,16.76819 -14.61148,-12.28033 -29.21661,-24.56823 -43.83971,-36.83468 -3.03451,-2.54542 -6.13558,-5.01155 -9.42591,-7.92833 20.83026,-4.05677 41.31082,-2.4313 61.05274,6.16275 0.32552,0.1417 0.86493,-0.20795 0.20561,-0.0274 2.18699,-11.18581 4.2779,-21.86158 6.36096,-32.53895 3.18976,-16.34997 8.12841,-32.09351 17.94371,-45.75812 9.31534,-12.96846 18.18387,-26.60887 33.96233,-32.95607 20.71354,-8.33251 40.38511,-5.37502 59.20367,5.78739 2.57295,1.52613 4.96061,3.36456 9.1543,6.23642 l -20.6597,-45.03973 c -11.75442,1.45183 -13.86492,-19.40636 -3.22979,-21.53731 z"
       id="path992"
       style="stroke-width:1.41134" />
    <path
       fill="#fdfae5"
       opacity="1"
       stroke="none"
       d="m 791.76617,80.323143 c 10e-6,1e-5 0.1696,0.003 0.0177,0.56768 -1.09208,1.72766 -1.81499,3.55515 -3.00813,3.94548 -66.08567,19.427687 -94.44035,67.029437 -97.63579,131.585057 1.51891,21.25277 9.12891,40.60732 17.02882,60.07863 -4.1937,-2.87188 -6.58136,-4.71029 -9.15431,-6.23643 -18.81855,-11.16241 -38.49012,-14.11989 -59.20366,-5.7874 -15.77847,6.3472 -24.647,19.98761 -33.96233,32.95608 -9.81531,13.66461 -14.75395,29.40815 -17.94372,45.75813 -2.08305,10.67736 -4.17396,21.35312 -6.36096,32.53894 0.65932,-0.18056 0.11996,0.16909 -0.20562,0.0274 -19.7419,-8.59405 -40.22246,-10.21953 -61.27268,-6.57684 -12.92941,-10.83487 -25.94507,-21.56875 -38.77095,-32.52477 -30.31681,-25.89691 -60.54333,-51.89946 -91.02093,-78.25143 3.5193,-9.7025 6.28201,-19.57067 11.22967,-28.18369 6.36831,-11.08636 14.48832,-21.16651 22.08473,-32.08276 0.23076,-0.4027 0.2883,-0.52924 0.67095,-0.69694 2.08611,-1.79093 3.78956,-3.41416 5.49296,-5.03741 0,0 0.13139,0.0275 0.55435,-0.15357 1.29704,-1.26633 2.1711,-2.35165 3.04522,-3.43694 0,0 -0.33676,-0.45991 0.10994,-0.33251 0.44663,0.12745 0.7182,-0.3947 0.7182,-0.3947 0.47303,-0.0714 0.85232,-0.29898 1.65088,-1.04936 0.78445,-0.7594 1.05592,-1.15221 1.32741,-1.54504 0,4e-5 -0.0949,-0.0227 0.27982,-0.0895 0.66828,-0.46546 0.96189,-0.86426 1.25551,-1.26305 0,0 -0.17112,-0.004 0.26362,0.0426 1.05722,-0.49101 1.67968,-1.02845 2.30209,-1.56591 0,-3e-5 0.0141,0.006 0.36898,-0.088 0.64067,-0.47839 0.9259,-0.86275 1.21111,-1.24707 0,0 -0.10232,-0.0164 0.30079,-0.0544 0.7196,-0.45804 1.03607,-0.87791 1.35254,-1.29775 2.9509,-1.68906 5.90185,-3.37812 9.54518,-5.48723 0.98411,-0.8146 1.27579,-1.20915 1.56747,-1.60369 0,0 -0.0383,0.13408 0.0256,0.1627 3.76488,-1.47424 7.46568,-2.97708 12.21133,-4.52865 3.05468,-1.08814 5.0645,-2.12751 7.07434,-3.1669 0,0 0.0433,-0.0127 0.008,-0.0219 6.54603,-0.85438 13.15102,-1.54715 19.70408,-2.57176 20.84588,-3.25946 40.78825,-0.0591 60.11349,8.01821 2.14125,0.89499 4.44966,1.39009 7.20328,2.16446 2.5845,1.42933 4.64621,2.76485 7.18642,4.16031 1.13926,0.4889 1.80004,0.91779 2.84072,1.4675 C 581.47352,75.851036 698.21017,12.913396 791.76617,80.323143 Z"
       id="path560"
       style="stroke-width:1.41134" />
    <path
       fill="#f7f8e7"
       opacity="1"
       stroke="none"
       d="m 973.3052,373.82676 c 4.1122,-4.09242 7.9712,-7.86813 12.3435,-10.90487 18.7859,-13.04782 38.7701,-12.68543 59.709,-4.4282 -2.4416,2.8939 -4.9577,7.03048 -8.1944,7.70416 -9.9373,2.06807 -15.9259,9.42547 -21.2318,16.27266 -8.2207,10.60891 -16.31636,22.0669 -14.2359,36.82101 -5.89886,-5.48655 -10.9206,-11.92245 -17.4534,-15.83651 -10.9254,-6.54593 -12.0771,-15.97888 -11.0007,-26.85997 0.069,-0.69852 0.034,-1.40742 0.063,-2.76828 z"
       id="path1639"
       style="stroke-width:1.41134" />
    <path
       fill="#38afcf"
       opacity="1"
       stroke="none"
       d="m 991.55503,475.98075 c -2.4696,-1.77572 -4.273,-3.55359 -6.2184,-5.71094 2.4071,-0.63585 4.9563,-1.11665 7.5054,-1.11614 91.18117,0.019 182.36257,0.0733 273.54377,0.1775 3.5049,0.004 7.0552,0.31251 10.4884,0.97546 1.1791,0.22763 2.0653,1.97284 3.0852,3.02476 -1.2064,0.81209 -2.3404,2.14981 -3.634,2.32791 -2.7711,0.38145 -5.6246,0.18656 -8.4443,0.18796 -91.8867,0.0467 -183.7733,0.0887 -276.32607,0.13352 z"
       id="path1640"
       style="stroke-width:1.41134" />
    <path
       fill="#f7f8e7"
       opacity="1"
       stroke="none"
       d="m 1259.4782,334.83516 c 15.9788,-18.51847 27.4584,-20.15987 42.3192,-6.48223 6.8429,-10.01243 10.3976,-15.87347 21.231,-20.84574 11.8798,-1.5158 21.6505,1.83708 30.8902,9.23494 6.5392,-46.32293 62.2495,-47.87469 74.2902,-32.11404 -4.7706,2.95881 -10.1866,4.65366 -13.6824,8.22685 -12.4127,11.57341 -15.9136,20.82692 -22.2254,35.64942 -1.0914,4.23158 -2.7498,7.90792 -3.9432,12.10052 -1.5143,0.0102 -2.5254,-0.0508 -3.8869,-0.45484 -11.7357,-3.35038 -22.9919,-7.05658 -34.5387,-9.18877 -14.9563,-2.7618 -27.9779,5.00485 -42.156,9.60295 -15.4662,0.87189 -30.9658,0.94541 -46.4741,1.08905 -12.3317,-0.11235 -24.1335,-0.004 -35.9354,0.10457 5.9378,-8.90115 16.273,-13.77171 34.1115,-6.92268 z"
       id="path1647"
       style="stroke-width:1.41134" />
    <path
       fill="#9ce3ea"
       opacity="1"
       stroke="none"
       d="m 1446.6857,302.60576 c 1.7961,4.52282 3.5923,9.04562 4.9333,12.42258 6.8644,-0.31329 13.0407,-0.5952 19.8467,-0.77129 6.8647,5.92161 13.0071,11.84289 19.4063,17.47191 1.4271,1.25529 3.7133,1.66278 5.6805,2.15157 6.6642,1.65579 13.3626,3.17301 20.7014,5.34512 -3.6509,1.30154 -7.9547,2.00112 -12.7097,2.41563 -2.5433,-0.34048 -4.6356,-0.39589 -7.312,-0.50069 -1.7502,0.0285 -2.9163,0.10628 -4.6151,0.0206 -2.3799,-0.0843 -4.2267,-0.006 -6.6438,0.0128 -1.7108,-0.0102 -2.8515,0.0416 -4.2855,0.008 -0.2932,-0.0852 -0.8889,0.0496 -1.5494,-0.0396 -29.9055,-2.11767 -64.328,4.396 -92.9321,-0.62198 4.2396,-7.59822 8.6462,-29.44757 13.1072,-36.83125 9.3511,-12.30624 14.2166,-12.28733 27.6912,-19.31764 4.1067,2.48985 8.1957,5.65144 11.6532,8.42977 0.04,-0.0113 -0.014,-0.0696 0.1355,0.28297 0.5334,0.6748 0.9209,0.99698 1.5444,1.70173 1.9402,2.8616 3.6442,5.34061 5.3484,7.81959 z"
       id="path1657"
       style="stroke-width:1.41134" />
    <path
       fill="#b1e5e5"
       opacity="1"
       stroke="none"
       d="m 1308.4027,340.49635 c 13.5517,-4.53026 26.5732,-12.29691 41.5295,-9.53511 11.5468,2.13219 27.1231,6.06184 38.3201,9.50799 -1.2757,0.5226 -6.683,0.38203 -8.2468,0.37598 -1.1209,-0.061 -1.7654,-0.0329 -2.4098,-0.006 -18.3628,-0.0295 -36.7259,-0.059 -55.7459,0.008 -1.3084,0.0566 -1.9594,0.0162 -3.7011,-0.0399 -3.9758,-0.11461 -6.8609,-0.2136 -9.746,-0.31258 z"
       id="path2284"
       style="stroke-width:1.41134" />
    <path
       fill="#f7f8e7"
       opacity="1"
       stroke="none"
       d="m 1494.2066,143.16854 c 22.1323,-25.6499 38.0327,-27.92341 58.6163,-8.97851 9.4782,-13.86822 14.4018,-21.98635 29.4071,-28.87343 16.4548,-2.09953 29.988,2.54454 42.786,12.7913 9.0575,-64.161868 86.2221,-66.311216 102.8996,-44.481142 -6.6081,4.09825 -14.1095,6.44578 -18.9516,11.39501 -17.1928,16.030332 -22.0418,28.847362 -30.7845,49.377992 -1.5117,5.86114 -3.8087,10.95324 -5.4616,16.76042 -2.0975,0.0141 -3.4979,-0.0704 -5.3838,-0.63 -16.2551,-4.64063 -31.8463,-9.77408 -47.8397,-12.72738 -20.7158,-3.82534 -38.7523,6.93222 -58.3901,13.30107 -21.4222,1.20767 -42.891,1.30949 -64.3714,1.50843 -17.0807,-0.1556 -33.4272,-0.006 -49.7741,0.14485 8.2244,-12.32899 22.5397,-19.07518 47.2478,-9.58861 z"
       id="path1647-9"
       style="stroke-width:1.95485" />
    <path
       fill="#9ce3ea"
       opacity="1"
       stroke="none"
       d="m 1753.5077,98.527638 c 2.4878,6.264562 4.9757,12.529082 6.8331,17.206512 9.5081,-0.43394 18.0628,-0.82442 27.4898,-1.06832 9.5082,8.20201 18.0161,16.40356 26.8797,24.2003 1.9766,1.7387 5.1433,2.30312 7.8681,2.98014 9.2305,2.29345 18.5085,4.39495 28.6734,7.40352 -5.0568,1.80278 -11.0179,2.77178 -17.6041,3.34592 -3.5229,-0.47162 -6.421,-0.54837 -10.1279,-0.6935 -2.4242,0.0395 -4.0394,0.14719 -6.3923,0.0285 -3.2964,-0.11672 -5.8547,-0.008 -9.2024,0.0176 -2.3697,-0.0141 -3.9497,0.0577 -5.936,0.0113 -0.4059,-0.11813 -1.2311,0.0689 -2.146,-0.0547 -41.4221,-2.93319 -89.1007,6.0889 -128.7204,-0.86151 5.8724,-10.5243 11.9762,-40.78779 18.155,-51.01494 12.9522,-17.045372 19.6916,-17.019182 38.355,-26.756872 5.6884,3.44869 11.352,7.82781 16.1409,11.67608 0.055,-0.0156 -0.019,-0.0963 0.1877,0.39194 0.7389,0.93467 1.2755,1.38093 2.1392,2.35708 2.6873,3.96359 5.0475,7.39726 7.4081,10.8309 z"
       id="path1657-7"
       style="stroke-width:1.95485" />
    <path
       fill="#b1e5e5"
       opacity="1"
       stroke="none"
       d="m 1561.9721,151.00986 c 18.7703,-6.27488 36.8065,-17.03243 57.5223,-13.2071 15.9934,2.9533 37.5683,8.39627 53.0773,13.16953 -1.7669,0.72386 -9.2566,0.52915 -11.4226,0.52077 -1.5526,-0.0844 -2.4453,-0.0456 -3.3378,-0.008 -25.4344,-0.0408 -50.8691,-0.0818 -77.2138,0.0113 -1.812,0.0783 -2.7138,0.0224 -5.1262,-0.0554 -5.5069,-0.15873 -9.5032,-0.29584 -13.4992,-0.43294 z"
       id="path2284-1"
       style="stroke-width:1.95485" />
    <path
       fill="#a0e4eb"
       opacity="1"
       stroke="none"
       d="m 2512.7222,206.61032 c 0,59.77603 0,119.5521 -0.4451,179.76263 -10.6668,-3.84543 -20.8884,-8.12535 -31.5866,-12.45864 -0.9619,0.35649 -1.4476,0.76636 -2.0137,0.73066 -0.1299,-0.73884 -0.1783,-1.03206 -0.1227,-1.80074 -31.1339,-24.87209 -62.7379,-48.81984 -93.4771,-73.83013 -19.0917,-15.53335 -39.433,-28.27534 -63.0115,-36.63197 -22.6837,-10.52326 -45.079,-20.65115 -67.8492,-31.09862 -13.1802,-5.96426 -25.9509,-11.68885 -38.807,-17.21506 -5.2931,-2.2752 -10.7693,-4.12368 -16.6692,-6.11935 -2.9827,1.88435 -5.4587,3.72175 -8.3684,5.71192 -2.9108,2.00887 -5.3878,3.86497 -8.3423,5.75826 -2.1327,1.78544 -3.7876,3.53367 -5.7252,5.35889 -0.2828,0.077 -0.8383,0.26408 -1.2769,0.30971 -1.1358,0.89088 -1.8331,1.7361 -2.4906,2.63371 0.04,0.0524 -0.058,-0.0371 -0.479,0.0555 -1.0867,0.958 -1.7516,1.82332 -2.7572,2.95481 -1.4853,1.07628 -2.6297,1.88645 -4.2348,2.74376 -1.665,1.30606 -2.8692,2.56497 -4.39,4.04613 -0.9439,0.67273 -1.5712,1.12318 -2.6314,1.62812 -1.154,0.87623 -1.8755,1.69799 -2.8892,2.58672 -0.2927,0.0669 -0.8697,0.2335 -1.3313,0.26571 -1.687,1.26141 -2.9121,2.49058 -4.5113,3.97167 -1.4567,0.73002 -23.2477,12.95307 -15.1814,7.43546 -0.8836,-5.51052 -0.8033,-19.91537 -0.3933,-25.23632 0.7068,-9.17414 0.8419,-15.80061 2.1597,-25.29432 l 35.9397,-72.9565 c -21.0811,-33.264286 60.9996,-71.156251 100.2421,-65.997286 58.4909,25.009657 70.5788,66.392686 73.3948,83.677086 4.5016,2.41508 8.6774,0.91128 13.656,2.04833 20.4107,4.66167 37.3989,15.33443 52.118,30.62648 13.1037,16.98562 20.1106,36.00885 23.24,57.71059 22.6668,-20.85059 48.4516,-31.27299 78.2341,-31.37718 z"
       id="path6"
       style="stroke-width:1.41134" />
    <path
       fill="#fdf9e5"
       opacity="1"
       stroke="none"
       d="m 2273.1272,63.749744 c 0.026,-0.0194 0.095,-0.0146 0.015,0.53372 0,0 -66.1695,19.05586 -99.2556,70.297006 -23.4645,36.34009 -33.023,72.59562 -33.7105,116.6932 -3.6638,3.27304 -7.2515,6.08667 -11.1946,8.51721 -11.9443,-6.98718 -23.9956,-10.35586 -37.7423,-9.73402 -33.4959,1.51515 -53.7204,20.9768 -68.1385,48.51155 -5.2252,9.97914 -8.8811,20.77986 -13.299,31.31452 -5.8696,-2.95437 -11.9704,-6.37658 -18.346,-9.17152 -24.1145,-10.57136 -56.1213,-6.54267 -77.365,11.33143 -19.2288,16.17882 -30.1018,37.17063 -37.8235,60.21747 -3.2895,9.81788 -8.5959,15.86318 -19.5018,16.15098 -6.283,0.16586 -12.6097,0.70114 -18.8062,1.73294 -19.2469,3.20471 -38.3923,7.03975 -57.6688,10.04009 -20.7794,3.23425 -41.6833,5.66232 -62.4907,8.72873 -8.4455,1.24464 -16.7794,3.24563 -25.814,4.93808 -38.6782,0.14877 -76.7063,0.26187 -115.3137,0.20255 -1.7669,-0.048 -2.9546,0.0763 -4.7881,0.20381 -20.4283,-0.0508 -40.2106,-0.10457 -59.6366,-0.56017 17.7274,-6.1643 35.3528,-8.5504 53.5661,-4.96961 2.4399,0.47967 5.738,0.17801 7.7167,-1.14282 17.0546,-11.38339 34.6387,-14.65335 53.7194,-5.14462 1.6798,0.83703 5.9783,-0.0676 6.7356,-1.44325 6.7498,-12.25918 17.0095,-20.38563 29.7307,-26.46801 1.0547,-0.19 1.656,-0.30684 2.6236,-0.48338 0.7556,-0.36085 1.1452,-0.66196 2.1015,-0.94204 10.5209,0.67655 20.4749,1.33208 29.3234,1.91479 7.0489,-8.84343 14.4564,-18.13633 21.8558,-27.46602 -0.014,-0.0368 -0.018,0.0311 0.3318,-0.1057 0.6852,-0.50423 1.0197,-0.87171 1.6398,-1.27308 0.2856,-0.0338 0.8222,-0.24034 1.1598,-0.32467 0.7686,-0.30761 1.0829,-0.64141 1.7728,-1.18113 22.627,-11.92205 44.6546,-10.97316 67.2504,2.20569 0,-9.4125 0,-17.08544 0.092,-25.1166 0.026,-0.8409 -0.038,-1.32354 0.22,-2.22148 0.4936,-1.77142 0.6644,-3.12748 0.9465,-4.88119 0.1059,-0.94626 0.1,-1.49481 0.4118,-2.4268 0.5398,-1.66814 0.762,-2.95285 1.0625,-4.47147 0.078,-0.23392 0.043,-0.72591 0.3527,-1.06044 0.4432,-1.21477 0.5758,-2.09495 0.8272,-3.27272 0.1185,-0.29752 0.2022,-0.93268 0.5307,-1.27445 0.544,-1.57389 0.7601,-2.806 1.0552,-4.29379 2.3316,-7.38706 6.3913,-13.86202 9.9564,-20.72191 -0.021,-0.0102 -0.021,-0.0408 0.3722,-0.26148 3.0155,-4.66918 57.3306,-85.97347 148.1063,-29.99654 10.0174,-44.1478 36.885,-56.6939 78.0859,-64.91536 4.894,-137.283502 114.0541,-180.527737 239.3331,-138.209496 z"
       id="path486"
       style="stroke-width:1.41134" />
    <path
       fill="#a1e4eb"
       opacity="1"
       stroke="none"
       d="m 2128.9825,259.79087 c -9.4415,8.71528 -19.2751,17.00421 -29.0271,25.38811 -25.9284,22.29078 -52.3689,44.02991 -77.4745,67.21345 -10.8803,10.04738 -18.7914,23.26341 -28.3912,34.75622 -13.0537,15.62806 -26.433,30.98426 -40.7679,46.62616 -74.7033,0.20135 -148.3111,0.24515 -221.9187,0.25502 -12.9223,10e-4 -25.8445,-0.13929 -38.7668,-0.21432 8.3849,-1.65683 16.7189,-3.65782 25.1643,-4.90246 20.8075,-3.06641 41.7113,-5.49448 62.4907,-8.72873 19.2766,-3.00034 38.422,-6.83538 57.6688,-10.04009 6.1965,-1.0318 12.5233,-1.56708 18.8062,-1.73294 10.9059,-0.2878 16.2124,-6.3331 19.5018,-16.15098 7.7217,-23.04684 18.5948,-44.03865 37.8235,-60.21747 21.2437,-17.8741 53.2506,-21.90279 77.3651,-11.33143 6.3756,2.79494 12.4763,6.21715 18.3459,9.17152 4.4179,-10.53466 8.0738,-21.33538 13.299,-31.31452 14.4181,-27.53475 34.6427,-46.9964 68.1385,-48.51155 13.7467,-0.62184 25.7981,2.74684 37.7424,9.73401 z"
       id="path1040"
       style="stroke-width:1.41134" />
    <path
       fill="#2fa9ca"
       opacity="1"
       stroke="none"
       d="m 1509.0647,438.09125 c 0.6715,-1.21802 1.3433,-2.43607 2.4209,-3.82316 20.1886,-0.11516 39.971,-0.0614 60.7529,0.22156 2.3376,0.0649 3.6755,-0.0994 5.0136,-0.26351 38.0282,-0.11319 76.0563,-0.22624 114.7345,-0.37497 13.572,0.0394 26.4942,0.18038 39.4165,0.17866 73.6076,-0.0102 147.2154,-0.0536 221.4572,-0.0669 -0.9083,2.18183 -2.4506,4.34457 -5.006,6.73658 -27.0674,0.21734 -53.1215,0.1967 -79.1754,0.19507 -73.2316,-0.004 -146.4628,-0.001 -220.3521,-0.0804 -46.7844,-0.51882 -92.9112,-0.95848 -139.0918,-1.7297 -0.054,-0.33162 -0.1703,-0.99326 -0.1703,-0.99326 z"
       id="path1055"
       style="stroke-width:1.41134" />
    <path
       fill="#19aece"
       opacity="1"
       stroke="none"
       d="m 1861.9037,147.97796 c 0,-0.003 0.301,-0.4896 0.301,-0.4896 0,0 -0.017,0.36541 -0.154,0.43127 -0.1369,0.066 -0.1437,0.0614 -0.147,0.0583 z"
       id="path1327"
       style="stroke-width:1.41134" />
    <path
       fill="#d4f1f4"
       opacity="1"
       stroke="none"
       d="m 1593.5735,264.76618 c -0.4893,-0.19033 -0.4739,-0.74287 -0.073,-1.1263 1.1167,-0.84254 1.8323,-1.30164 2.548,-1.76074 6.7609,0.058 12.2645,2.13504 14.6294,9.76693 5.1016,-4.30931 9.4135,-2.55482 13.8181,1.41253 -0.103,0.9656 -0.9375,2.33532 -0.9664,2.31863 -4.6171,-2.68358 -9.1414,-2.47169 -13.8107,-0.0451 -0.4907,0.25511 -2.3915,-0.87747 -2.6289,-1.66896 -1.9713,-6.57195 -7.3709,-7.78693 -13.5166,-8.89707 z"
       id="path1668"
       style="stroke-width:1.41134" />
    <path
       fill="#d4f1f4"
       opacity="1"
       stroke="none"
       d="m 1632.6126,245.45854 c -0.4893,-0.19033 -0.4739,-0.74287 -0.073,-1.1263 1.1167,-0.84254 1.8323,-1.30164 2.548,-1.76074 6.761,0.058 12.2645,2.13503 14.6294,9.76694 5.1016,-4.30932 9.4135,-2.55483 13.8181,1.41251 -0.103,0.96561 -0.9375,2.33533 -0.9663,2.31864 -4.6172,-2.68358 -9.1415,-2.47169 -13.8108,-0.0451 -0.4907,0.25511 -2.3915,-0.87747 -2.6289,-1.66896 -1.9713,-6.57195 -7.3709,-7.78693 -13.5166,-8.89707 z"
       id="path1668-8"
       style="stroke-width:1.41134" />
    <path
       fill="#d4f1f4"
       opacity="1"
       stroke="none"
       d="m 1620.1082,302.34121 c -0.4893,-0.19033 -0.4739,-0.74287 -0.073,-1.1263 1.1167,-0.84254 1.8322,-1.30164 2.5479,-1.76074 6.761,0.058 12.2646,2.13503 14.6295,9.76693 5.1016,-4.30931 9.4135,-2.55482 13.8181,1.41252 -0.1031,0.9656 -0.9375,2.33533 -0.9664,2.31863 -4.6171,-2.68357 -9.1414,-2.47168 -13.8107,-0.0451 -0.4907,0.25511 -2.3915,-0.87747 -2.6289,-1.66896 -1.9713,-6.57196 -7.371,-7.78693 -13.5166,-8.89707 z"
       id="path1668-8-6"
       style="stroke-width:1.41134" />
    <path
       fill="#d4f1f4"
       opacity="1"
       stroke="none"
       d="m 1555.0074,242.95416 c -0.5238,-0.0366 -0.6731,-0.56875 -0.4044,-1.05376 0.8163,-1.13599 1.3634,-1.78677 1.9106,-2.43759 6.4736,-1.95119 12.3456,-1.60113 16.8689,4.98504 3.5929,-5.62923 8.2312,-5.23351 13.6147,-2.75214 0.1883,0.95267 -0.202,2.50835 -0.2345,2.50095 -5.2055,-1.19233 -9.4633,0.35275 -13.2019,4.05586 -0.3929,0.38925 -2.5442,-0.12814 -3.0057,-0.81355 -3.8331,-5.69077 -9.35,-5.24848 -15.5483,-4.48464 z"
       id="path1668-3"
       style="stroke-width:1.41134" />
    <path
       fill="#d4f1f4"
       opacity="1"
       stroke="none"
       d="m 545.14789,86.170025 c -0.4893,-0.19033 -0.4739,-0.74287 -0.073,-1.1263 1.1167,-0.84254 1.8323,-1.30164 2.548,-1.76074 6.761,0.058 12.2645,2.13503 14.6294,9.76694 5.1016,-4.30932 9.4135,-2.55483 13.8181,1.41251 -0.103,0.96561 -0.9375,2.33533 -0.9663,2.31864 -4.6172,-2.68358 -9.1415,-2.47169 -13.8108,-0.0451 -0.4907,0.25511 -2.3915,-0.87747 -2.6289,-1.66896 -1.9713,-6.57195 -7.3709,-7.78693 -13.5166,-8.89707 z"
       id="path1668-8-1"
       style="stroke-width:1.41134" />
    <path
       fill="#d4f1f4"
       opacity="1"
       stroke="none"
       d="m 531.16725,128.29026 c -0.4893,-0.19033 -0.4739,-0.74287 -0.073,-1.1263 1.1167,-0.84254 1.8322,-1.30164 2.5479,-1.76074 6.761,0.058 12.2646,2.13503 14.6295,9.76693 5.1016,-4.30931 9.4135,-2.55482 13.8181,1.41252 -0.1031,0.9656 -0.9375,2.33533 -0.9664,2.31863 -4.6171,-2.68357 -9.1414,-2.47168 -13.8107,-0.0451 -0.4907,0.25511 -2.3915,-0.87747 -2.6289,-1.66896 -1.9713,-6.57196 -7.371,-7.78693 -13.5166,-8.89707 z"
       id="path1668-8-6-4"
       style="stroke-width:1.41134" />
    <path
       fill="#d4f1f4"
       opacity="1"
       stroke="none"
       d="m 497.06757,49.712041 c -0.5238,-0.0366 -0.6731,-0.56875 -0.4044,-1.05376 0.8163,-1.13599 1.3634,-1.78677 1.9106,-2.43759 6.4736,-1.95119 12.3456,-1.60113 16.8689,4.98504 3.5929,-5.62923 8.2312,-5.23351 13.6147,-2.75214 0.1883,0.95267 -0.202,2.50835 -0.2345,2.50095 -5.2055,-1.19233 -9.4633,0.35275 -13.2019,4.05586 -0.3929,0.38925 -2.5442,-0.12814 -3.0057,-0.81355 -3.8331,-5.69077 -9.35,-5.24848 -15.5483,-4.48464 z"
       id="path1668-3-0"
       style="stroke-width:1.41134" />
    <path
       style="fill:#025574;fill-opacity:1;stroke:none;stroke-width:1.41134px;stroke-linecap:butt;stroke-linejoin:miter;stroke-opacity:1"
       d="M 356.83186,171.75364 729.00528,485.60931 849.88213,605.42582 965.45736,728.42331 353.65088,727.36298 287.91085,610.72743 305.93634,416.6883 337.74603,218.40786 Z"
       id="path2677" />
    <path
       style="fill:#d3dc82;fill-opacity:1;stroke:none;stroke-width:1.41134px;stroke-linecap:butt;stroke-linejoin:miter;stroke-opacity:1"
       d="m -10.039967,455.92025 367.932147,-285.22694 4.24129,47.71455 -13.78421,100.7307 22.26679,46.65423 -27.5684,93.30842 6.36194,36.05101 -20.14615,21.20646 5.30163,45.59389 -21.20646,57.25746 53.01615,109.21328 -467.60253,8.48258 z"
       id="path2676" />
    <path
       fill="#025574"
       opacity="1"
       stroke="none"
       d="m 356.11431,169.44918 c 9.27262,7.22436 18.58461,14.50988 27.77212,21.94925 6.89946,5.5867 13.63887,11.37108 21.12516,17.61737 30.93874,26.50969 61.16519,52.51224 91.48209,78.40914 12.8258,10.95603 25.84157,21.68991 38.99084,32.93886 3.29038,2.91678 6.39138,5.38292 9.42589,7.92833 14.62313,12.26646 29.22821,24.55435 44.04722,37.18843 1.0976,0.91576 1.98773,1.47778 3.08251,2.48051 16.76794,14.69865 33.33152,28.95664 49.30502,43.28074 -4.35073,-0.0166 -6.19167,1.52835 -7.40444,5.44334 -2.71032,8.74931 -6.2913,17.22891 -9.93326,25.58076 -12.36514,-8.87275 -24.3931,-17.40214 -36.24071,-26.175 -10.31093,-7.63503 -20.518,-15.41957 -30.56798,-23.39385 -4.1839,-3.31998 -7.84139,-7.30349 -11.84012,-11.45544 -6.50231,-7.26007 -13.09438,-13.88125 -19.26036,-20.87785 -10.18223,-11.55363 -20.10237,-23.33851 -30.10676,-35.04837 -4.843,-5.66864 -8.75297,-12.60451 -14.62554,-16.8224 -11.01477,-7.9112 -22.81748,-14.92021 -34.9307,-21.04161 -8.62369,-4.358 -16.2449,-10.38977 -26.8,-12.00446 -6.90609,-1.05651 -12.60817,-9.18213 -19.12459,-13.74889 -14.938,-10.46838 -30.04452,-20.6963 -45.08258,-31.02187 -2.49327,-5.31058 -4.98654,-10.62113 -7.00122,-16.5032 1.83826,-0.90059 3.2472,-1.64398 4.55001,-1.48997 7.23211,0.85486 8.18066,-3.27483 7.46342,-8.96366 -1.42517,-11.30613 -2.80348,-22.61817 -4.20112,-33.9278 0,0 -0.13973,-0.21508 -0.12561,-0.34236 z"
       id="path370"
       style="stroke-width:1.41134" />
    <path
       fill="#027898"
       opacity="1"
       stroke="none"
       d="m 355.15587,231.09779 c 15.31031,9.90395 30.41683,20.13187 45.35483,30.60025 6.51642,4.56676 12.2185,12.69238 19.12459,13.74889 10.5551,1.61469 18.17631,7.64646 26.8,12.00446 12.11322,6.1214 23.91593,13.13041 34.9307,21.04161 5.87257,4.21789 9.78254,11.15376 14.62554,16.8224 10.00439,11.70986 19.92453,23.49474 30.10676,35.04837 6.16598,6.9966 12.75805,13.61778 19.02269,21.28909 -1.98321,3.4633 -3.73298,4.9402 -6.95916,2.22902 -4.06436,-3.41528 -8.50781,-6.41087 -13.00151,-9.24876 -0.65683,-0.4148 -2.49778,1.04537 -3.7907,1.63799 -1.1326,-0.38575 -2.2652,-0.77144 -3.80595,-1.91441 -1.47005,-2.94396 -2.03966,-5.67033 -3.70814,-7.19183 -2.55988,-2.33456 -5.66581,-4.47123 -8.91866,-5.55348 -5.20557,-1.73178 -10.72149,-2.53069 -16.10617,-3.72397 -22.34356,-12.74923 -44.74486,-25.39879 -67.01065,-38.28223 -15.1888,-8.78854 -30.17845,-17.92114 -45.29316,-26.83877 -1.16223,-0.68572 -2.61097,-0.88582 -4.46885,-1.2549 -0.54238,0.0568 -0.41324,-0.0453 -0.50512,-0.3266 -0.49214,-0.55798 -0.89224,-0.83457 -1.29236,-1.11122 0,0 0.1002,-0.0113 -0.0861,-0.29749 -0.63481,-0.51961 -1.08362,-0.75292 -1.53242,-0.98623 -3.29279,-1.93422 -6.58572,-3.86842 -10.41298,-6.4686 -3.7423,-8.54195 -6.71443,-16.52539 -10.23769,-24.25763 -2.52009,-5.53065 -5.35094,-10.80201 -3.00756,-17.10008 3.29999,-3.14811 6.59983,-6.29619 10.17221,-9.86588 z"
       id="path372"
       style="stroke-width:1.41134" />
    <path
       fill="#0f98af"
       opacity="1"
       stroke="none"
       d="m 344.53853,241.112 c -1.89839,6.14974 0.93261,11.4211 3.45255,16.95175 3.52326,7.73224 6.49539,15.71568 9.77026,24.10697 -13.79695,13.7265 -27.6341,26.96596 -41.54494,40.1275 -3.20951,3.03665 -6.67152,5.80647 -10.89114,8.90135 -2.94545,0.49738 -5.01715,0.79255 -7.08872,1.08766 0,0 0.12843,0.0779 0.41268,-0.1321 0.46913,-0.65442 0.65416,-1.09887 0.83933,-1.54331 0,0 0.041,0.15794 0.37484,-0.0717 0.52375,-1.10015 0.71371,-1.97064 0.90368,-2.84114 0,0 0.19265,-0.58469 0.85669,-0.89846 1.68188,-2.59831 2.6996,-4.88283 3.71746,-7.16737 11.98619,-24.80214 23.96067,-49.61009 35.98906,-74.39178 0.69691,-1.43583 1.8322,-2.65892 3.20839,-4.12933 z"
       id="path381"
       style="stroke-width:1.41134" />
    <path
       fill="#06849e"
       opacity="1"
       stroke="none"
       d="m 355.89188,170.19146 c 1.74497,10.90971 3.12328,22.22175 4.54845,33.52788 0.71724,5.68883 -0.23131,9.81852 -7.46342,8.96366 -1.30281,-0.15401 -2.71175,0.58938 -4.6426,0.98436 -5.34359,-3.64813 -5.73185,-8.05298 -3.54894,-13.54398 3.86904,-9.73165 7.20205,-19.6764 11.10651,-29.93192 z"
       id="path387"
       style="stroke-width:1.41134" />
    <path
       fill="#0f98af"
       opacity="1"
       stroke="none"
       d="m 34.899139,485.34834 c 30.094895,-27.98428 60.087125,-56.08003 90.321981,-83.91226 19.00542,-17.4951 38.33398,-34.64048 57.61181,-51.83709 4.35026,-3.88062 9.00292,-7.44394 13.7066,-10.89396 1.49744,-1.09834 3.61019,-1.35789 6.34715,-0.73031 -9.26099,11.97094 -18.34644,24.08263 -27.81209,35.88948 C 122.1571,439.87047 67.704254,504.53669 7.5836629,564.20178 c -9.164467,9.09512 -18.7435009,17.77242 -28.5599209,26.84001 -0.429116,-8.30081 -0.429116,-16.79868 -0.02286,-26.20443 15.2778949,-21.58553 30.2070899,-42.22223 44.978542,-62.97125 3.466058,-4.8687 6.398884,-10.11699 9.577029,-15.19065 0,0 0.06972,0.0782 0.359468,-0.0275 0.520909,-0.50366 0.752058,-0.90164 0.983207,-1.2996 z"
       id="path22"
       style="stroke-width:1.41134" />
    <path
       fill="#014f6e"
       opacity="1"
       stroke="none"
       d="m 328.85791,544.49772 c -3.86875,-6.84438 -7.70832,-13.70553 -11.62288,-20.52358 -1.27991,-2.22925 -2.75487,-4.34651 -3.71541,-7.03899 1.52758,-0.18244 2.75551,-0.0485 3.7138,0.53124 18.79707,11.37101 37.67394,22.61622 56.29697,34.26685 13.04818,8.16316 25.7412,16.89412 38.14444,25.60829 -4.51242,3.77168 -1.81069,7.07261 0.71708,9.14731 15.73001,12.91036 31.15827,26.29737 47.74767,38.02554 23.53306,16.6372 47.92207,32.07128 72.08457,47.80547 6.10297,3.97421 12.73462,7.13637 19.12332,10.67168 -0.90857,-3.05086 -2.50322,-5.05364 -4.3929,-6.72219 -15.27927,-13.49169 -30.58866,-26.94959 -45.93807,-40.3615 -20.2889,-17.72789 -40.62236,-35.4047 -61.23735,-53.45832 -6.48828,-6.40244 -12.86492,-12.26981 -18.82916,-18.53012 -20.81911,-21.85266 -41.37746,-43.95513 -62.3166,-65.69121 -4.73008,-4.91008 -10.59693,-8.72502 -15.94054,-13.04409 -0.61542,-0.33254 -1.20404,-0.88669 -1.85022,-0.96482 -12.38588,-1.49822 -18.39461,-9.56162 -21.22598,-20.94668 6.77798,-2.87478 13.82393,-5.86328 21.73525,-8.57138 13.25749,7.60272 25.64959,14.92515 38.24316,22.60855 1.11324,0.77845 2.025,1.19586 2.93682,1.61329 0.146,-0.39276 0.29197,-0.78552 0.43797,-1.17824 -1.17275,-0.28762 -2.34549,-0.57525 -3.57719,-1.345 -8.93145,-9.61477 -17.80403,-18.74737 -26.67659,-27.87996 -0.19129,-5.11953 -0.38257,-10.23903 -0.004,-15.87649 4.24934,1.98697 7.92963,4.49114 11.60889,6.99676 31.39741,21.38217 62.88332,42.63636 94.11696,64.25511 6.24342,4.32148 12.28127,9.41541 17.05625,15.26202 5.89772,7.2213 10.29434,15.65596 15.48502,23.46978 14.40779,21.68891 28.8851,43.3317 43.35103,64.98193 2.0477,3.06464 3.65868,6.69992 6.38574,8.97637 6.63414,5.53836 13.80573,10.43299 20.96617,15.96772 1.49623,1.48836 2.78706,2.59604 4.32734,4.03313 0.98705,0.66959 1.72465,1.00975 2.71134,1.74824 2.17731,2.08004 3.84124,4.57392 6.07958,5.30198 9.41746,3.06352 19.00889,5.59142 28.53188,8.3319 4.46883,1.28618 9.55834,1.65004 13.27349,4.0937 12.08318,7.94772 23.65762,16.66847 35.43578,25.08058 12.12466,8.6595 24.2587,17.30585 36.63396,26.35816 8.17854,7.03565 16.11182,13.67118 23.37404,20.39088 -13.26163,0.13238 -25.85402,0.0753 -38.44224,0.27755 -5.47544,0.0878 -8.36335,-1.52048 -9.48877,-7.58963 -0.62213,-3.35477 -4.69105,-6.07028 -7.78467,-9.16456 -12.17618,-2.20642 -17.33038,5.21775 -21.95793,14.36998 -2.56955,0.98484 -4.70732,2.24001 -6.84835,2.24552 -36.15619,0.093 -72.31271,0.0305 -108.37013,-0.51779 1.35083,-3.98101 2.14337,-7.70386 3.94054,-10.85361 5.3972,-9.45872 3.67059,-14.79646 -7.29444,-19.61881 -4.39133,-3.04992 -8.23413,-6.11129 -12.25646,-8.915 -26.90454,-18.75387 -53.84366,-37.45811 -80.77938,-56.16711 -11.33924,-7.87596 -23.81165,-14.53442 -33.78257,-23.86823 -14.49793,-13.57145 -27.13092,-29.12578 -40.69628,-43.70697 -6.31062,-6.78314 -12.94375,-13.26621 -19.43073,-19.88525 z"
       id="path367"
       style="stroke-width:1.41134" />
    <path
       fill="#017d9c"
       opacity="1"
       stroke="none"
       d="m 568.47146,637.93611 c -0.73757,-0.34017 -1.47517,-0.68033 -2.50351,-1.84377 -4.05329,-4.44781 -14.29782,-10.36199 -25.25223,-19.507 -1.338,-1.11691 -20.55571,-30.0303 -49.73676,-73.9583 -8.50376,-15.13979 -18.27595,-28.64257 -32.54126,-38.7318 -31.23366,-21.61875 -62.71956,-42.87294 -94.11698,-64.25511 -3.67924,-2.50562 -7.35955,-5.00979 -11.52011,-7.63141 -7.18189,-4.32044 -13.88298,-8.52421 -21.23013,-13.36259 0.82557,-4.14563 1.99523,-7.82356 3.82632,-11.1358 5.15509,-9.32517 10.58225,-18.49998 15.90219,-27.73404 0.29642,-0.42024 0.59288,-0.84048 1.46575,-1.59628 0.85938,-0.58322 1.07585,-0.87937 1.22578,-1.22417 0.96913,-3.43831 2.70376,-6.86962 2.73554,-10.31659 0.0533,-5.78598 -0.97726,-11.58193 -1.95119,-17.84981 5.37757,-5.80976 4.76314,-10.24839 -1.59399,-14.92358 -2.39467,-1.76114 -3.38801,-5.42778 -5.02021,-8.22574 3.50323,-2.53814 7.00642,-5.07625 11.21625,-7.27874 4.84819,7.10268 8.98973,13.8698 13.22638,20.79223 -3.4808,1.27764 -7.36327,2.70274 -12.3129,4.51956 2.2603,1.63849 3.1219,2.40002 4.10132,2.95258 14.91732,8.41628 29.90401,16.71111 44.76017,25.23369 9.94197,5.70336 19.70362,11.72113 29.54088,17.57331 -0.006,-0.025 -0.0544,-0.0263 0.13803,0.27101 0.54449,0.61099 0.89647,0.92475 1.50445,1.64136 3.01012,2.4664 5.65736,4.70249 8.57229,6.50611 1.11669,0.69098 2.84465,0.39418 4.29405,0.54751 -0.004,-1.29156 0.41465,-2.79606 -0.10529,-3.82742 -0.89711,-1.7796 -2.39029,-3.25557 -3.60965,-4.8767 -1.21908,-1.62075 -2.40907,-3.26324 -3.61182,-4.89618 1.8759,-1.31162 3.75178,-2.6233 6.1168,-3.83444 8.914,4.71829 17.54849,8.99873 25.6974,14.06089 6.50045,4.03813 13.51417,8.08991 18.35593,13.78771 10.90051,12.82775 20.57489,26.69561 30.78395,40.11303 22.4271,29.47517 45.10393,58.76413 67.2222,88.46904 11.31678,15.19856 21.64993,31.12953 32.37506,46.77211 -0.0526,0.0426 -0.15123,0.13168 -0.65825,0.12871 -4.5902,-3.31536 -8.57936,-6.75269 -12.77921,-9.90975 -5.80396,-4.36306 -11.7667,-8.51484 -17.70923,-12.91841 -0.0477,-0.1613 -0.44682,-0.21226 -0.44682,-0.21226 0,0 0.54115,0.32755 0.75326,0.74804 10.35564,13.45646 20.4829,26.50513 30.65121,39.52167 3.6883,4.72144 6.90722,10.02094 11.35965,13.88092 5.59284,4.84854 12.2326,8.48963 18.45138,13.14945 0.79848,2.60498 2.82741,5.781 2.10878,6.62907 -22.10524,11.1834 -47.63275,-1.82462 -73.56817,1.17996 -5.35841,0.64158 -10.74322,1.06202 -16.11735,1.57199 m 23.89636,-80.09103 c 0.0988,10e-4 0.19747,0.003 0,0 z"
       id="path368"
       style="stroke-width:1.41134" />
    <path
       fill="#014e6e"
       opacity="1"
       stroke="none"
       d="m 595.32734,561.62852 c 5.89471,4.24232 11.85745,8.3941 17.66142,12.75716 4.19984,3.15706 8.189,6.5944 12.8317,10.31333 1.03202,1.04506 1.50441,1.68354 2.05013,2.47669 0.0733,0.15466 0.51573,0.14794 0.51573,0.14794 0,0 -0.55696,-0.33461 -0.58232,-0.749 -0.45862,-1.09309 -0.89191,-1.77175 -1.3252,-2.45045 -10.77772,-15.59999 -21.11087,-31.53096 -32.42765,-46.72952 -22.11827,-29.70491 -44.7951,-58.99387 -67.2222,-88.46904 -10.20906,-13.41742 -19.88344,-27.28528 -30.78395,-40.11303 -4.84176,-5.6978 -11.85547,-9.74958 -18.35593,-13.78771 l -72.2102,-54.60494 c -4.58906,-3.18864 -27.40415,-29.72527 -32.22763,-19.65433 -1.33786,3.56472 -6.89219,7.83664 0.55273,11.67006 4.50746,2.3209 8.58947,5.65468 12.45437,9.0044 16.2478,14.08196 32.37076,28.30882 48.44821,42.58528 1.64288,1.45893 2.67549,3.60505 3.99131,5.43232 -9.84235,-5.87711 -19.604,-11.89488 -29.54597,-17.59824 -14.85616,-8.52258 -29.84285,-16.81741 -44.76017,-25.23369 -0.97942,-0.55256 -1.84102,-1.31409 -4.10132,-2.95258 4.94963,-1.81682 8.8321,-3.24192 12.3129,-4.51956 -4.23665,-6.92243 -8.37819,-13.68955 -12.77861,-20.88071 3.35252,-2.51509 6.96386,-4.60609 10.92419,-6.89912 -3.3076,-4.30071 -6.51403,-8.46992 -9.29682,-13.16843 1.73927,-0.1036 3.188,0.0965 4.35022,0.78229 37.1246,22.52487 75.01324,43.7414 112.57566,65.51768 9.53578,5.73717 18.79969,11.07767 28.46645,16.62403 1.53542,0.59153 2.66801,0.97722 4.05388,1.7605 5.59324,4.10742 11.93808,6.95495 16.03573,11.73062 6.03583,7.03436 10.39094,15.49677 15.64384,23.22729 1.25532,1.84739 2.9946,3.60574 4.90797,4.72981 36.00923,21.15574 86.24117,50.45819 145.85563,83.5642 10.56942,5.86956 21.22784,11.57877 31.92881,17.87392 0.57749,1.56057 0.89836,3.38006 1.59387,3.53674 9.43383,2.12585 8.53074,9.27455 8.33087,16.28585 -0.0503,1.76769 0.70722,3.65927 1.45761,5.33059 2.52099,5.61583 1.60024,9.88886 -4.90472,12.3475 -3.20435,-1.42761 -5.93882,-2.72245 -8.60739,-4.14128 -73.69134,-41.66214 -54.0234,4.96534 -3.25483,50.51362 16.72352,15.00371 33.50312,29.95015 50.50143,44.64022 8.64924,7.47464 17.9767,14.16082 26.7027,21.55156 4.03305,3.41602 10.23977,5.81444 8.10322,12.9147 -2.88289,-1.58155 -5.30552,-2.98849 -7.76209,-4.3334 -11.84631,-6.48574 -23.70181,-12.95486 -35.80947,-19.83761 -7.45395,-4.76249 -14.61806,-9.17507 -21.85761,-13.46024 -18.97457,-11.23135 -37.95912,-22.44614 -57.0034,-33.55842 -2.56335,-1.49572 -5.49327,-2.36328 -8.3367,-3.87981 -0.50867,-0.76239 -0.93416,-1.16678 -1.35961,-1.57112 -0.22949,0.26135 -0.459,0.52271 -0.68849,0.78406 0.63792,0.45348 1.27589,0.90697 2.14853,1.76701 2.01523,2.26232 3.76131,4.15264 5.58195,5.96819 12.55864,12.52356 24.95146,25.22144 37.77003,37.47363 7.71325,7.37246 16.09754,14.04281 24.27293,21.50589 7.15927,7.50997 14.22586,14.54261 21.29245,21.57535 -0.38023,0.33785 -0.76038,0.6757 -1.1406,1.01354 -7.17745,-4.43723 -14.35499,-8.87444 -21.7806,-13.71996 -8.54934,-5.77594 -16.85059,-11.14365 -25.1725,-16.49068 -0.0206,0.0206 0.0113,-0.0102 -0.22941,-0.41227 -2.8982,-2.04112 -5.55531,-3.67952 -8.46301,-5.72115 -17.04646,-12.28243 -33.84225,-24.16163 -50.63804,-36.04075 -6.18795,-4.16217 -12.8277,-7.80326 -18.42055,-12.6518 -4.45243,-3.85998 -7.67134,-9.15948 -11.35965,-13.88092 -10.16831,-13.01656 -20.29557,-26.06522 -30.66416,-39.5118 -0.22514,-0.41059 -0.24567,-0.38441 -0.24567,-0.38441 m 74.12906,45.78712 c 0,0 0.0476,0.0964 0,0 z"
       id="path369"
       style="stroke-width:1.41134" />
    <path
       fill="#139ab0"
       opacity="1"
       stroke="none"
       d="m 350.85525,379.92436 c -4.8762,9.08599 -10.30336,18.2608 -15.45845,27.58597 -1.83109,3.31224 -3.00075,6.99017 -4.28325,10.89999 -2.5094,4.58322 -6.46953,8.43558 -7.67427,13.01303 -3.90998,14.85633 -13.11046,24.28249 -25.37947,33.43683 -58.08358,43.33794 -119.51761,81.40417 -181.59815,118.53585 -6.37037,3.81025 -13.05551,7.09428 -20.480656,10.67686 -1.67488,-1.3933 -2.46372,-2.84093 -3.25256,-4.28855 0,0 0.10529,-0.16965 0.43156,-0.22085 0.62258,-0.21946 0.80074,-0.47125 0.86073,-0.80663 15.512486,-18.36007 29.527686,-38.11641 51.150436,-50.4174 44.58691,-25.36511 86.2669,-54.72903 124.41849,-89.22888 26.26935,-23.75501 53.83539,-46.07611 81.26559,-69.18622 z"
       id="path373"
       style="stroke-width:1.41134" />
    <path
       fill="#61a269"
       opacity="1"
       stroke="none"
       d="m 139.83198,690.85069 c -0.46879,0.45509 -0.78476,0.47956 -1.98143,0.11672 -14.22078,-4.74699 -26.75507,-0.91009 -39.248046,2.89028 4.504966,-5.8072 8.996636,-11.13511 13.525206,-16.43158 15.76835,-18.4423 31.53259,-36.88821 47.36505,-55.27537 1.01888,-1.18324 2.60213,-1.88054 4.29732,-3.05801 1.08414,-1.48189 1.79379,-2.70962 2.5074,-3.89668 0.004,0.0407 -0.0737,0.0155 0.41932,0.11036 2.99329,-1.77502 5.49354,-3.64489 7.99378,-5.51479 38.16728,-25.0001 76.33458,-50.00018 114.50184,-75.00028 0.44944,0.42476 0.8989,0.84957 1.34834,1.27433 -4.33007,5.49516 -8.53323,11.09615 -13.01217,16.46713 -19.36693,23.2245 -37.87384,47.26644 -58.55772,69.25784 -14.19591,15.09321 -31.51441,27.23678 -47.32938,40.82416 -10.65613,9.15534 -21.12437,18.52914 -31.82951,28.23593 z"
       id="path374"
       style="stroke-width:1.41134" />
    <path
       fill="#088da8"
       opacity="1"
       stroke="none"
       d="m 163.41559,619.3469 c -1.3207,0.92331 -2.90395,1.62061 -3.92283,2.80385 -15.83246,18.38717 -31.5967,36.83308 -47.36505,55.27537 -4.52857,5.29648 -9.02024,10.62439 -13.541066,16.40317 -0.0127,0.46533 0.0495,0.4625 -0.30366,0.53838 -0.61803,0.46172 -0.88284,0.84762 -1.51036,1.55803 -4.77797,3.44384 -9.19328,6.56302 -13.60857,9.68226 -5.65709,-9.43176 -11.31418,-18.8636 -16.75747,-29.03361 7.75856,-9.95799 15.39479,-19.10497 22.81949,-28.42052 6.07469,-7.62177 11.897146,-15.4445 17.831406,-23.17818 0.24073,-0.33051 0.53605,-0.60161 1.57921,-0.99863 1.20138,-0.79576 1.70953,-1.40615 2.21769,-2.01647 24.60869,-16.28429 49.1893,-32.61126 73.8461,-48.82237 6.04782,-3.97627 12.34465,-7.57374 19.35416,-11.54295 2.08199,0.38467 3.33682,0.96693 4.55647,1.85173 -0.0352,0.30261 -0.0634,0.91126 -0.0634,0.91126 0,0 0.0911,0.0635 -0.41738,0.0851 -1.51502,1.43977 -2.52139,2.85808 -3.52775,4.27635 -2e-5,0 -0.15488,0.008 -0.43032,0.15708 -0.66133,0.37992 -0.81263,0.71622 -0.72935,1.15807 0,0 -0.45726,0.38782 -0.94007,0.84406 -0.72192,0.93416 -0.96108,1.41211 -1.20024,1.89003 0,0 0.13239,-0.0566 -0.31179,0.0113 -0.97681,1.01268 -1.50945,1.95744 -2.04206,2.90219 -0.40043,0.28012 -0.80085,0.56026 -1.7623,1.32894 -0.91223,1.24353 -1.26342,1.99847 -1.61464,2.75342 0,0 0.16513,0.0177 -0.20604,0.0719 -0.62581,0.48938 -0.8804,0.92456 -1.135,1.35974 1e-5,0 0.11516,-0.0379 -0.3344,0.0711 -1.50662,1.51369 -2.5637,2.91825 -3.62078,4.32278 -2e-5,0 0.0224,0.006 -0.3169,0.10713 -0.54138,0.50832 -0.74336,0.91459 -0.94535,1.32092 0,0 -0.37083,0.30655 -0.84118,0.7431 -1.54808,1.88034 -2.62578,3.32402 -3.70346,4.76775 0,0 0.0968,0.0549 -0.25124,0.1249 -0.57956,0.49065 -0.81115,0.91128 -1.04274,1.33191 -2e-5,0 0.0598,0.0675 -0.29936,0.17866 -0.76945,0.41438 -0.97243,0.82106 -0.9681,1.33122 0,0 -0.0822,-0.0141 -0.42602,0.21293 -0.72507,0.93412 -1.10623,1.64177 -1.48742,2.34942 0,0 0.1602,0.0384 -0.19294,0.10924 -0.57424,0.52392 -0.79532,0.97702 -1.01638,1.43007 0,0 0.10994,10e-4 -0.24989,0.0861 -0.60643,0.50832 -0.85304,0.93156 -1.09964,1.35483 -2e-5,0 0.10358,0.0279 -0.25783,0.11558 -0.57524,0.52319 -0.78909,0.9588 -1.00294,1.39438 -1e-5,0 0.0182,-0.0113 -0.34112,0.18072 -0.74684,0.90125 -1.13435,1.61002 -1.52187,2.31878 0,0 0.27295,10e-4 -0.25241,0.18598 -2.96196,3.44904 -5.39855,6.71337 -7.83513,9.97764 0,0 0.0778,0.0253 -0.31805,0.18637 -1.0939,1.42382 -1.79202,2.68639 -2.49012,3.94901 z"
       id="path375"
       style="stroke-width:1.41134" />
    <path
       fill="#5da26d"
       opacity="1"
       stroke="none"
       d="m 108.31973,513.50692 c 8.96878,-10.71497 17.26638,-22.09138 27.0417,-32.0116 22.51045,-22.84414 45.25769,-45.50658 68.90921,-67.14958 9.70857,-8.88419 21.93389,-15.04661 33.12931,-22.26898 9.64786,-6.22412 19.45885,-12.19538 29.94458,-18.14635 0.9633,0.31945 1.17973,0.50681 1.39614,0.69416 -20.1048,25.0165 -41.14315,49.35404 -59.99968,75.27846 -13.5002,18.56035 -32.09417,29.60971 -50.47236,41.55749 -12.55867,8.16446 -25.0278,16.46663 -38.04344,24.3051 -0.80478,-3.1799 -1.10309,-5.95761 -1.46779,-9.35334 -4.17664,2.83892 -7.30717,4.96678 -10.43767,7.09464 z"
       id="path377"
       style="stroke-width:1.41134" />
    <path
       fill="#035575"
       opacity="1"
       stroke="none"
       d="m 732.24811,561.59186 c 6.00473,-2.53413 6.92548,-6.80716 4.40449,-12.42299 -0.75039,-1.67132 -1.50799,-3.5629 -1.45761,-5.33059 0.19987,-7.0113 1.10296,-14.16 -8.33087,-16.28585 -0.69551,-0.15668 -1.01638,-1.97617 -1.12148,-3.55792 5.12799,-1.24698 2.44977,-3.52657 1.32779,-5.30835 -4.34772,-6.90466 -8.88641,-13.6918 -13.1174,-20.66622 -2.75625,-4.5433 -6.01403,-9.17961 -2.25483,-14.52553 1.38843,0.86993 2.4539,1.39034 3.66978,2.21251 0.42813,0.69978 0.80947,0.90924 1.68131,1.1811 2.38541,1.59025 4.38398,2.92944 6.66388,4.66359 3.95318,3.44169 7.62504,6.4885 11.48071,9.88655 0.99433,1.00923 1.80483,1.66726 2.78098,2.57747 0.65355,0.11107 1.14172,-0.0301 1.90545,0.0152 0.82823,0.55105 1.38066,0.91556 2.03481,1.76344 3.34124,3.94595 6.58076,7.40856 9.89899,10.81313 0.0786,-0.0581 -0.0346,0.10132 0.006,0.56008 1.95859,2.45032 3.87746,4.44192 6.00024,6.85493 4.37572,4.34315 8.54745,8.26486 12.68781,12.65362 1.31306,2.10891 2.65754,3.75084 4.10109,5.67421 0.29788,0.64903 0.59334,0.90495 1.25526,1.45225 6.38263,6.72697 12.49554,13.05106 18.78297,19.78338 1.86781,2.09624 3.56117,3.78426 5.36134,5.84901 0.90655,0.93843 1.70611,1.50007 2.59,2.57167 3.84414,4.77752 7.31262,9.35347 11.42947,13.24321 6.84339,6.46591 14.10303,12.49136 21.29667,19.18014 9.68062,10.803 19.24159,21.13781 28.86166,31.41721 0.37489,0.40055 1.31668,0.27057 2.21064,0.84228 2.38456,3.26483 4.55273,6.0751 6.7209,8.88536 0.66114,-0.3591 1.32226,-0.71823 1.9834,-1.07735 0,-2.90125 0,-5.80247 0,-7.71481 1.1443,3.68314 2.48638,8.00242 4.02804,12.7563 4.80986,5.63224 9.42005,10.83001 15.16592,17.30807 0.31881,-5.52311 0.50488,-8.74719 0.96383,-11.50121 -0.74184,10.12426 3.28913,17.36622 10.84862,23.04911 1.62875,1.22442 2.82758,3.0208 4.60183,4.8122 10.84973,10.99452 21.32191,21.73048 31.40145,32.75188 -4.92719,-0.0648 -9.46183,-0.41485 -14.50512,-0.8042 3.36691,3.43874 5.49303,5.61026 7.61926,7.78172 -2.9587,1.26282 -5.88284,3.52454 -8.88158,3.62826 -21.44543,0.74203 -42.90611,1.04446 -64.33932,0.95333 -2.47595,-3.51112 -4.44884,-7.2896 -7.56112,-9.33245 -16.10796,-10.57339 -32.50724,-20.70298 -48.80497,-30.98729 1.69198,-7.30347 -4.51473,-9.70188 -8.54778,-13.1179 -8.726,-7.39074 -18.05346,-14.07692 -26.7027,-21.55156 -16.99832,-14.69008 -33.77792,-29.63651 -50.50145,-44.64022 -11.66402,-10.46468 -22.88226,-21.43376 -34.70705,-31.70871 -5.16429,-4.48744 -4.26524,-8.18677 -0.52449,-12.47832 5.73519,-6.57954 5.41346,-8.74449 -1.94076,-12.38882 -5.35116,-2.65172 -2.74754,-7.22236 -2.25215,-11.52925 9.20177,5.49753 17.96538,11.33918 26.71753,17.19798 15.32923,10.2617 30.65866,20.52334 45.9717,30.80914 3.74963,2.5186 7.79895,3.4814 10.39671,-0.85684 2.71276,-4.53046 -1.34475,-6.48961 -4.61105,-8.51642 -8.93567,-5.54475 -17.7971,-11.20882 -26.68798,-16.82561 z"
       id="path979"
       style="stroke-width:1.41134" />
    <path
       fill="#d0d980"
       opacity="1"
       stroke="none"
       d="m 637.75422,416.31828 c 0,0 -0.31567,-0.35912 -0.55386,-0.37587 -16.80164,-14.27484 -33.36511,-28.53283 -49.81208,-43.5856 21.31993,-12.63397 42.57222,-24.38698 63.70376,-36.35328 8.88964,-5.03404 17.52396,-10.51898 26.27429,-15.79896 0,0 -0.0664,-0.0236 0.42218,0.0385 1.47301,0.0366 2.45748,0.0113 3.56194,0.61643 -2.19566,28.56887 -4.60428,56.49943 -6.75575,84.44978 -0.48381,6.28549 -2.96058,11.15887 -7.79775,14.97755 -4.03304,3.18397 -8.09671,6.32906 -12.1468,9.49134 -0.48821,-0.29141 -0.97636,-0.58283 -2.06838,-1.3435 -1.08693,-0.69869 -1.57,-0.92813 -2.05313,-1.15756 0,0 0.007,0.14993 -0.0508,-0.2113 -0.4982,-0.58792 -0.93807,-0.81455 -1.378,-1.04123 0,0 -0.0159,0.0279 -0.18895,-0.37063 -0.98753,-0.65055 -1.80203,-0.90255 -2.61649,-1.1545 0,0 -10e-4,0.10288 -0.0826,-0.25185 -0.49476,-0.61793 -0.90881,-0.88108 -1.32283,-1.14425 0,0 -0.0102,0.0988 -0.0913,-0.25524 -0.49322,-0.61152 -0.90483,-0.86899 -1.31646,-1.12649 0,0 -0.037,0.087 -0.13859,-0.3715 -1.93047,-1.98297 -3.75942,-3.50745 -5.58833,-5.03189 z"
       id="path993"
       style="stroke-width:1.41134" />
    <path
       fill="#1aa8c6"
       opacity="1"
       stroke="none"
       d="m 654.85663,430.1419 c 3.84361,-3.52597 7.90728,-6.67106 11.94032,-9.85503 4.83717,-3.81867 7.31394,-8.69206 7.79775,-14.97755 2.15147,-27.95035 4.56009,-55.8809 6.90499,-84.77786 0.10528,-1.18624 0.18124,-1.41331 0.25725,-1.64033 3.94665,2.34313 8.28623,4.21251 11.77584,7.10674 21.63889,17.94684 42.88518,36.37389 64.75907,54.02519 4.68522,3.78079 11.25339,5.57192 17.23141,7.34448 21.30261,6.31648 42.81903,11.92663 64.03205,18.51948 4.98955,1.55068 9.79572,5.24793 13.47463,9.11127 11.10767,11.66418 50.94764,59.56405 50.94764,59.56405 l 32.49561,8.84373 22.7631,-83.17268 88.23631,77.85603 229.8041,252.65263 -315.64844,-3.42941 -144.66787,-153.33212 c -0.36507,2.02407 -34.07438,-33.86437 -35.61475,-32.05226 -0.39222,-0.14433 -0.68768,-0.40025 -0.97573,-1.56906 -1.41934,-2.408 -2.74937,-4.0147 -4.07947,-5.62144 L 664.57696,438.7465 c -3.24442,-2.65766 -6.34627,-5.48946 -9.72037,-8.60459"
       id="path1610"
       style="stroke-width:1.41134" />
    <path
       fill="#d3dc82"
       opacity="1"
       stroke="none"
       d="m 912.00438,486.79971 c -0.42149,-0.61431 -0.6551,-1.00263 -1.33218,-1.46789 -2.38998,-2.83129 -4.47398,-5.50295 -6.95803,-8.40944 -0.48215,-0.7207 -0.72291,-1.1079 -1.44012,-1.54063 -1.51901,-1.84087 -2.72025,-3.5376 -4.32591,-5.4349 -0.46749,-0.69568 -0.69922,-1.09236 -1.41772,-1.54115 -0.3971,-0.63194 -0.62384,-1.02892 -1.31358,-1.49033 -1.51683,-1.8461 -2.71851,-3.54328 -4.32694,-5.43697 -0.64141,-0.59343 -0.87597,-0.99033 -1.43373,-1.52909 -0.41933,-0.61794 -0.65915,-1.00483 -1.35138,-1.46161 -0.37885,-0.63102 -0.57929,-1.03906 -1.20011,-1.56982 -1.12415,-1.3373 -1.958,-2.48802 -3.175,-3.83436 -0.52391,-0.64912 -0.78303,-1.01987 -1.4625,-1.47146 -0.51547,-0.57466 -0.72884,-0.98581 -1.2642,-1.54804 -0.41934,-0.61983 -0.64495,-1.0154 -1.29729,-1.51281 -0.35869,-0.64533 -0.55131,-1.05317 -1.15326,-1.59982 -0.65615,-0.88927 -1.03533,-1.57724 -1.76125,-2.46027 -0.4475,-0.7564 -0.54829,-1.31775 -0.6974,-2.30664 13.01766,-7.59171 25.97871,-14.95647 39.17793,-21.86628 14.6614,-7.67526 29.53993,-14.93562 44.80515,-22.37662 -1.48512,12.95256 -3.45242,25.90492 -5.4167,38.85778 -0.31622,2.0848 -0.61943,4.17155 -0.86536,6.84778 -0.105,1.07513 -0.2735,1.55989 -0.66596,2.85616 -1.41435,6.50648 -2.2259,12.31524 -3.89393,17.86665 -1.95247,6.49848 -4.65109,12.77282 -7.02618,19.14439 0,0 0.13917,0.11304 -0.25438,0.0701 -1.02197,0.51143 -1.65064,1.0657 -2.27929,1.61997 0,0 0.0924,0.0911 -0.28452,0.1369 -0.64468,0.46017 -0.91259,0.87459 -1.18049,1.28902 0,0 0.10755,0.0143 -0.26574,0.0588 -0.67646,0.43377 -0.97968,0.82292 -1.28299,1.21205 0,0 0.12547,-0.001 -0.27426,0.0462 -0.66528,0.48217 -0.93093,0.91628 -1.19659,1.35039 0,0 0.20657,-0.0144 -0.2518,-0.0687 -1.07865,0.50052 -1.69894,1.05541 -2.31934,1.61031 0,0 0.1597,0.0471 -0.33793,0.0998 -1.58801,0.95427 -2.67831,1.85594 -3.76859,2.75759 0,0 -0.0544,0.0127 -0.40583,0.13492 -0.61477,0.50325 -0.87828,0.88372 -1.14179,1.26425 0,0 0.10797,0.0757 -0.30519,0.10768 -0.7882,0.3963 -1.16324,0.76076 -1.53831,1.12518 0,0 -0.53131,0.1321 -1.15687,0.33 -1.20702,0.30245 -1.78865,0.40707 -2.37017,0.51167 0,0 -0.25455,-0.45287 -0.49644,-0.55526 -2.60094,-2.72869 -4.95992,-5.355 -7.71109,-8.21812 -0.61402,-0.64253 -0.83575,-1.04824 -1.38274,-1.59735 z"
       id="path2259"
       style="stroke-width:1.41134" />
    <path
       fill="#dadf92"
       opacity="1"
       stroke="none"
       d="m 2072.6634,626.62653 c 0.1976,-0.4973 0.8189,-1.04801 1.874,-1.61437 -0.1943,0.50987 -0.8224,1.03541 -1.874,1.61437 z"
       id="path1307"
       style="stroke-width:1.41134" />
    <path
       style="fill:#d4da81;fill-opacity:1;stroke:none;stroke-width:1.41134px;stroke-linecap:butt;stroke-linejoin:miter;stroke-opacity:1"
       d="m 2197.1869,200.46356 -166.9824,133.58603 -104.828,118.74314 -201.3066,233.77555 -20.4091,23.19203 h 324.6884 l 84.4189,-76.06983 -1.8554,-48.2394 -61.2268,-9.27681 33.3964,-17.62593 -29.6858,-59.37157 74.2145,-44.52869 25.0473,-45.45635 4.6384,-60.29925 24.1197,-39.89027 -2.783,-31.54115 z"
       id="path47" />
    <path
       style="fill:#02809f;fill-opacity:1;stroke:none;stroke-width:1.41134px;stroke-linecap:butt;stroke-linejoin:miter;stroke-opacity:1"
       d="m 2200.5092,201.66089 135.4414,55.66085 143.7906,103.90025 -54.7332,28.7581 -133.586,80.70822 -149.3566,85.34663 -89.985,20.40898 -74.2144,-77.92518 185.5361,-248.61845 z"
       id="path48" />
    <path
       fill="#025170"
       opacity="1"
       stroke="none"
       d="m 2448.3382,363.2096 c -16.5371,-7.84912 -33.1831,-15.48092 -49.5443,-23.68104 -4.8519,-2.43176 -9.6235,-5.83017 -13.1807,-9.88345 -9.4589,-10.77819 -20.5946,-19.2813 -33.2281,-25.67922 -6.8016,-3.44457 -11.4569,-8.08555 -15.2977,-14.65011 -8.3971,-14.35196 -17.6386,-28.20997 -26.6707,-42.74029 23.154,7.49075 43.4953,20.23274 62.587,35.76608 30.7392,25.0103 62.3432,48.95805 93.0094,73.83604 -6.2731,2.6649 -11.9741,4.84844 -17.6749,7.03199 z"
       id="path490"
       style="stroke-width:1.41134" />
    <path
       fill="#015373"
       opacity="1"
       stroke="none"
       d="m 2410.4193,380.30784 c -0.041,0.96233 -0.3073,1.2313 -1.0237,1.34118 -3.5857,-2.32737 -6.5952,-5.31474 -10.2193,-6.8608 -16.3911,-6.99224 -32.9773,-13.52528 -49.4305,-20.37453 -2.0574,-0.85637 -4.0031,-2.3585 -5.5577,-3.985 -13.8191,-14.46283 -28.3001,-28.02632 -45.7385,-38.25833 -3.6836,-2.1613 -6.2407,-6.79254 -8.4919,-10.75455 -13.8801,-24.43273 -27.5313,-48.9956 -41.2286,-73.53198 -0.7956,-1.42551 -1.3291,-2.9975 -2.0696,-5.00692 2.2962,1.65025 4.9383,3.58167 7.0194,5.9963 23.4157,27.16777 46.2755,54.8344 70.3314,81.42 9.466,10.46132 21.2168,18.99097 32.5235,27.61831 16.2042,12.36391 32.9973,23.95365 49.4141,36.04346 1.8773,1.38226 2.9544,3.85042 4.4714,6.35286 z"
       id="path1085"
       style="stroke-width:1.41134" />
    <path
       style="fill:#149bb4;fill-opacity:1;stroke:none;stroke-width:1.41134px;stroke-linecap:butt;stroke-linejoin:miter;stroke-opacity:1"
       d="m 2079.8659,361.23328 -12.2394,15.92516 -55.4471,48.56042 -66.0053,77.05433 -77.4153,91.39992 -157.3277,116.87204 179.8031,-1.49836 1.9979,-14.98361 1.9977,-11.98687 63.93,-84.40758 24.4733,-13.9847 11.9868,-47.44804 67.9257,-96.8939 39.9562,-22.97485 61.4328,-98.89171 35.9606,-29.9672 5.494,-73.91906 -70.9225,57.43711 -27.4698,93.8972 -9.4897,15.98249 -32.4644,24.97266 -4.4951,-1.49836 z"
       id="path2697" />
    <path
       style="fill:#149bb4;fill-opacity:1;stroke:none;stroke-width:1.41134px;stroke-linecap:butt;stroke-linejoin:miter;stroke-opacity:1"
       d="m 2108.8805,294.40331 c 0,0 -46.6181,24.1919 -50.5028,29.13624 -3.8849,4.94433 -22.2496,65.689 -22.2496,65.689 l 4.0615,-1.94241 z"
       id="path2696" />
    <path
       style="fill:#d4da81;fill-opacity:1;stroke:none;stroke-width:1.41134px;stroke-linecap:butt;stroke-linejoin:miter;stroke-opacity:1"
       d="m 2199.4812,283.33078 -38.3154,33.4621 -56.1958,91.70146 -40.1034,24.2664 -66.5391,100.11768 20.8161,-14.03582 48.2773,-28.86425 11.2391,-19.92398 60.283,-28.60881 29.3751,-54.91871 3.3206,-64.36982 26.0546,-29.88598 c 0,0 8.9402,-12.51636 1.7879,-8.94027 z"
       id="path2698" />
    <path
       style="fill:#d4da81;fill-opacity:1;stroke:none;stroke-width:1.41134px;stroke-linecap:butt;stroke-linejoin:miter;stroke-opacity:1"
       d="m 2468.8875,359.27562 -175.563,78.75049 c 0,0 -99.7025,86.69778 -110.5398,89.58772 -10.8373,2.88992 -145.2187,48.40625 -145.2187,48.40625 l 64.3008,7.9473 -204.4623,140.88391 121.3769,-10.11473 72.9707,-67.19079 239.864,-134.38159 79.4728,-58.521 54.1861,-68.63574 7.2248,-27.4543 z"
       id="path2700" />
    <rect
       style="fill:url(#linearGradient4);stroke-width:0.624436"
       id="rect2"
       width="253.32899"
       height="2656.5298"
       x="705.82422"
       y="-2580.7485"
       transform="rotate(90)" />
    <path
       style="fill:#027c9c;fill-opacity:1;stroke:none;stroke-width:1.41134px;stroke-linecap:butt;stroke-linejoin:miter;stroke-opacity:1"
       d="m 2508.5363,368.24721 -35.4015,-13.72715 -41.1815,39.7365 -36.1241,-0.7225 -28.8993,49.12876 -41.9039,24.56437 10.1147,39.014 -307.7771,171.22813 -20.952,33.23415 624.9466,2.16745 z"
       id="path2699" />
    <path
       fill="#014e6e"
       opacity="1"
       stroke="none"
       d="m 2375.1908,438.96685 c 11.7013,6.37171 23.4648,12.63302 35.0928,19.13589 34.6296,19.36634 69.2061,38.82758 104.2374,58.47009 0.4342,17.18391 0.4342,34.14939 0.4342,51.77632 -3.6652,-1.30978 -7.5131,-3.0056 -10.9673,-5.29531 -29.492,-19.55016 -59.0658,-38.98515 -88.2203,-59.0291 -5.5832,-3.83858 -9.8209,-9.90825 -14.0024,-15.45854 -10.4234,-13.83522 -20.4573,-27.96399 -30.7018,-42.83268 1.3395,-2.82741 2.7333,-4.79703 4.1274,-6.76667 z"
       id="path30"
       style="stroke-width:1.41134" />
    <path
       fill="#025574"
       opacity="1"
       stroke="none"
       d="m 2310.8128,429.60273 c -6.2988,4.1206 -12.5975,8.24121 -19.3104,12.58891 -2.0163,-2.51562 -3.1407,-5.72671 -5.2972,-7.92571 -15.3084,-15.6108 -30.9037,-30.93999 -46.2511,-46.51318 -8.8177,-8.94761 -17.3424,-18.18405 -25.619,-27.95416 35.7242,19.24849 73.7093,34.12406 107.5335,57.81786 -3.2266,4.06794 -6.4965,7.33931 -9.7662,10.61069 0,4e-5 -0.049,-0.0553 -0.334,0.11517 -0.6925,0.42057 -0.9163,0.78392 -0.9556,1.26041 z"
       id="path1086"
       style="stroke-width:1.41134" />
    <path
       fill="#025574"
       opacity="1"
       stroke="none"
       d="m 2391.137,400.54274 c 1.1178,-0.92394 2.7502,-2.59233 4.372,-2.58191 11.1076,0.0709 22.2131,0.49411 33.8221,0.82678 9.7335,16.43487 18.8013,32.94126 28.2506,49.22625 6.5504,11.28819 13.6263,22.2713 20.5251,33.90134 0.058,0.51066 0.017,0.55902 0.017,0.55902 -6.999,-4.91741 -14.1052,-9.69023 -20.9715,-14.78642 -10.1111,-7.50457 -20.3548,-14.88346 -29.9212,-23.04404 -4.0967,-3.49445 -6.5881,-8.85213 -9.8834,-13.30782 -6.3826,-8.62948 -12.7056,-17.30764 -19.312,-25.76321 -1.6156,-2.0676 -4.2321,-3.35283 -6.8984,-5.02999 z"
       id="path642"
       style="stroke-width:1.41134" />
    <path
       fill="#4bd7f1"
       opacity="1"
       stroke="none"
       d="m 2697.4103,761.5642 c -209.9801,-0.22257 -419.9603,-0.62641 -629.9408,-0.63413 -695.9443,-0.026 -1391.88831,0.092 -2090.970901,0.0933 -4.192054,1.46458 -5.246033,2.99048 -5.570681,5.69324 100.880536,1.98578 201.034672,3.50415 301.182242,3.414 112.60722,-0.10132 225.20709,-2.41447 337.81231,-2.45085 678.82203,-0.21933 1357.64423,-0.0577 2036.46603,-0.0577 15.613,0 31.2267,-0.40418 49.8749,-1.78036 2.4058,-2.19955 1.7764,-3.23863 1.1469,-4.2777 z"
       id="path1600"
       style="stroke-width:4.66009" />
    <path
       fill="#4bd7f1"
       opacity="1"
       stroke="none"
       d="m 2662.7768,724.02385 c -209.9801,-0.22257 -419.9602,-0.62641 -629.9408,-0.63413 -695.9442,-0.026 -1391.88825,0.092 -2090.970841,0.0933 -4.192055,1.46458 -5.246034,2.99048 -5.570682,5.69324 100.880529,1.98578 201.034673,3.50415 301.182243,3.414 112.60723,-0.10132 225.2071,-2.41447 337.81232,-2.45085 678.82216,-0.21933 1357.64426,-0.0577 2036.46596,-0.0577 15.6131,0 31.2267,-0.40418 49.875,-1.78036 2.4058,-2.19955 1.7763,-3.23863 1.1468,-4.2777 z"
       id="path1600-06"
       style="stroke-width:4.66009" />
    <path
       fill="#4bd7f1"
       opacity="1"
       stroke="none"
       d="m 2628.9249,705.47608 c -209.9801,-0.22256 -419.9602,-0.6264 -629.9408,-0.63413 -695.9442,-0.026 -1391.88821,0.092 -2090.970815,0.0933 -4.192055,1.46458 -5.246033,2.99047 -5.570681,5.69324 100.8805279,1.98578 201.034666,3.50415 301.182256,3.414 112.60722,-0.10133 225.20709,-2.41447 337.81231,-2.45086 678.82213,-0.21932 1357.64413,-0.0577 2036.46593,-0.0577 15.6132,0 31.2267,-0.40418 49.875,-1.78036 2.4057,-2.19955 1.7763,-3.23863 1.1468,-4.2777 z"
       id="path1600-0"
       style="fill:#a1e4eb;fill-opacity:1;stroke:none;stroke-width:4.66009;stroke-opacity:1" />
  </g>
</svg>
