<?xml version="1.0" encoding="utf-8"?>
<!-- Generator: Adobe Illustrator 25.0.1, SVG Export Plug-In . SVG Version: 6.00 Build 0)  -->
<svg version="1.1" id="Layer_1" xmlns="http://www.w3.org/2000/svg" xmlns:xlink="http://www.w3.org/1999/xlink" x="0px" y="0px"
	 viewBox="0 0 34 18" style="enable-background:new 0 0 34 18;" xml:space="preserve">
<g id="rean-a-car">
	<g id="Location-review" transform="translate(-947, -2145)">
		<g id="Search-results-for-Car---Flaticon-12" transform="translate(947, 2145)">
			<path id="Shape" d="M32.2,6.9l-2.7-1.3l-2.4-3.9C26.4,0.7,25.2,0,23.8,0H13.6c-1.2,0-2.3,0.6-3,1.5L7.4,5.6L2.2,7
				C0.9,7.4,0,8.6,0,10v2c0,1.7,1.3,3.1,3,3.1h0.4c0.5,2.1,2.6,3.3,4.7,2.8c1.4-0.4,2.4-1.4,2.8-2.8h11.7c0.5,2.1,2.6,3.3,4.7,2.8
				c1.4-0.4,2.4-1.4,2.8-2.8H31c1.7,0,3-1.4,3-3.1V9.7C34,8.5,33.3,7.4,32.2,6.9z M7.2,16.6c-1.4,0-2.5-1.1-2.5-2.5s1.1-2.5,2.5-2.5
				s2.5,1.1,2.5,2.5C9.7,15.5,8.6,16.6,7.2,16.6z M26.4,16.6c-1.4,0-2.5-1.1-2.5-2.5s1.1-2.5,2.5-2.5s2.5,1.1,2.5,2.5
				C28.9,15.5,27.8,16.6,26.4,16.6z M31,13.7h-0.7C30,11.5,28.1,10,26,10.2c-1.8,0.2-3.2,1.6-3.4,3.4H11c-0.2-2.1-2.1-3.7-4.3-3.4
				c-1.8,0.2-3.2,1.6-3.4,3.4H3c-0.9,0-1.6-0.8-1.6-1.7v-2c0-0.8,0.5-1.4,1.2-1.6L8,6.9c0.1,0,0.3-0.1,0.4-0.3l3.2-4.3
				c0.5-0.6,1.2-1,1.9-1h10.3c0.8,0,1.6,0.4,2.1,1.1l2.5,4.1c0.1,0.1,0.2,0.2,0.3,0.3l2.9,1.3c0.6,0.3,1,0.9,1,1.5V12h0
				C32.6,12.9,31.9,13.7,31,13.7z"/>
		</g>
	</g>
</g>
</svg>
