<?xml version="1.0" encoding="utf-8"?>
<!-- Generator: Adobe Illustrator 25.0.1, SVG Export Plug-In . SVG Version: 6.00 Build 0)  -->
<svg version="1.1" id="Layer_1" xmlns="http://www.w3.org/2000/svg" xmlns:xlink="http://www.w3.org/1999/xlink" x="0px" y="0px"
	 viewBox="0 0 22 22" style="enable-background:new 0 0 22 22;" xml:space="preserve">
<g id="rean-a-car">
	<g id="Location-review" transform="translate(-571, -2143)">
		<g id="check-_x28_6_x29_" transform="translate(571, 2143)">
			<path id="Shape" d="M11,0C4.9,0,0,4.9,0,11s4.9,11,11,11s11-4.9,11-11S17.1,0,11,0z M11,20.3c-5.1,0-9.3-4.2-9.3-9.3
				S5.9,1.7,11,1.7c5.1,0,9.3,4.2,9.3,9.3S16.1,20.3,11,20.3z"/>
			<path id="Path" d="M16,7.2c-0.3-0.3-0.9-0.3-1.2,0.1L9.6,13l-2.5-2.6c-0.3-0.3-0.9-0.3-1.2,0c-0.3,0.3-0.3,0.9,0,1.2l3.1,3.2
				C9.2,15,9.4,15,9.7,15c0,0,0,0,0,0c0.2,0,0.5-0.1,0.6-0.3l5.8-6.4C16.4,8,16.4,7.5,16,7.2z"/>
		</g>
	</g>
</g>
</svg>
