<?xml version="1.0" encoding="utf-8"?>
<!-- Generator: Adobe Illustrator 25.0.1, SVG Export Plug-In . SVG Version: 6.00 Build 0)  -->
<svg version="1.1" id="Layer_1" xmlns="http://www.w3.org/2000/svg" xmlns:xlink="http://www.w3.org/1999/xlink" x="0px" y="0px"
	 viewBox="0 0 22 22" style="enable-background:new 0 0 22 22;" xml:space="preserve">
<g id="rean-a-car">
	<g id="Location-review" transform="translate(-188, -2143)">
		<g id="Search-results-for-Clock---Flaticon-12" transform="translate(188, 2143)">
			<path id="Shape" d="M11,0C4.9,0,0,4.9,0,11s4.9,11,11,11s11-4.9,11-11C22,4.9,17.1,0,11,0L11,0z M11,20c-5,0-9-4-9-9s4-9,9-9
				s9,4,9,9C20,16,16,20,11,20L11,20z"/>
			<path id="Path" d="M12,10.6V5c0-0.6-0.4-1-1-1s-1,0.4-1,1v6c0,0.3,0.1,0.5,0.3,0.7l3,3c0.4,0.4,1,0.4,1.4,0s0.4-1,0-1.4L12,10.6z
				"/>
		</g>
	</g>
</g>
</svg>
