<?xml version="1.0" encoding="utf-8"?>
<!-- Generator: Adobe Illustrator 25.0.1, SVG Export Plug-In . SVG Version: 6.00 Build 0)  -->
<svg version="1.1" id="Layer_1" xmlns="http://www.w3.org/2000/svg" xmlns:xlink="http://www.w3.org/1999/xlink" x="0px" y="0px"
	 viewBox="0 0 26 23" style="enable-background:new 0 0 26 23;" xml:space="preserve">
<g id="rean-a-car">
	<g id="Location-review" transform="translate(-952, -2382)">
		<g id="Search-results-for-Deposite---Flaticon-12" transform="translate(952, 2382)">
			<path id="Shape" d="M25.9,16.9c-0.2-0.6-0.6-1.1-1.2-1.4s-1.2-0.3-1.8-0.1l-2.3,0.7c0.1-0.6-0.1-1.2-0.5-1.7s-1-0.7-1.6-0.7h-5.8
				c-2.1-1.4-3.8-1.1-7.2-1.1v-0.5c0-0.3-0.2-0.5-0.5-0.5H0.5c-0.3,0-0.5,0.2-0.5,0.5v8.8c0,0.3,0.2,0.5,0.5,0.5h4.3
				c0.3,0,0.5-0.2,0.5-0.5c0-0.2,0-0.2,0.2-0.1c4.3,2.5,9.5,2.9,14.2,1l4.9-2C25.7,19.3,26.3,18,25.9,16.9z M4.3,20.3H1.1v-7.7h3.3
				V20.3z M24.2,18.8l-4.9,2c-4.3,1.8-9.2,1.4-13.2-0.9l-0.7-0.4v-5.7c3.6,0,4.9-0.2,6.6,0.9c0.4,0.3,0.1,0.2,6.4,0.2
				c0.4,0,0.8,0.2,1,0.6c0.2,0.4,0.1,0.8-0.1,1.2c-0.6,0.5-0.1,0.4-6.8,0.4c-0.3,0-0.5,0.2-0.5,0.5c0,0.3,0.2,0.5,0.5,0.5
				c6.1,0,6.6,0.2,7.4-0.6l3.4-1c0.6-0.2,1.3,0.1,1.5,0.7C25.1,17.8,24.8,18.5,24.2,18.8L24.2,18.8z"/>
			<path id="Shape_1_" d="M2.3,18.3c-0.2,0.2-0.2,0.6,0,0.8s0.6,0.2,0.8,0s0.2-0.6,0-0.8c-0.1-0.1-0.2-0.2-0.4-0.2
				C2.6,18.1,2.4,18.2,2.3,18.3z M17.3,7.7h-2.2c-0.3,0-0.5,0.2-0.5,0.5c0,0.3,0.2,0.5,0.5,0.5h1.1v0.5c0,0.3,0.2,0.5,0.5,0.5
				c0.3,0,0.5-0.2,0.5-0.5V8.8c0.9,0,1.6-0.7,1.6-1.6s-0.7-1.6-1.6-1.6h-1.1c-0.3,0-0.5-0.2-0.5-0.5s0.2-0.5,0.5-0.5h2.2
				c0.3,0,0.5-0.2,0.5-0.5s-0.2-0.5-0.5-0.5h-1.1V2.7c0-0.3-0.2-0.5-0.5-0.5c-0.3,0-0.5,0.2-0.5,0.5v0.5c-0.9,0-1.6,0.7-1.6,1.6
				s0.7,1.6,1.6,1.6h1.1c0.3,0,0.5,0.2,0.5,0.5S17.6,7.7,17.3,7.7z"/>
			<path id="Shape_2_" d="M16.8,12.1c3.3,0,6-2.7,6-6s-2.7-6-6-6s-6,2.7-6,6S13.5,12.1,16.8,12.1z M16.8,1.1c2.7,0,4.9,2.2,4.9,4.9
				S19.5,11,16.8,11S11.9,8.8,11.9,6S14.1,1.1,16.8,1.1L16.8,1.1z"/>
		</g>
	</g>
</g>
</svg>
