<?xml version="1.0" encoding="utf-8"?>
<!-- Generator: Adobe Illustrator 25.0.1, SVG Export Plug-In . SVG Version: 6.00 Build 0)  -->
<svg version="1.1" id="Layer_1" xmlns="http://www.w3.org/2000/svg" xmlns:xlink="http://www.w3.org/1999/xlink" x="0px" y="0px"
	 viewBox="0 0 17 22" style="enable-background:new 0 0 17 22;" xml:space="preserve">
<g id="rean-a-car">
	<g id="Location-review" transform="translate(-574, -2384)">
		<g id="Search-results-for-Document---Flaticon-12" transform="translate(574, 2384)">
			<path id="Shape" d="M16.3,4.6L12,0.6C11.6,0.2,11,0,10.4,0h-8C1.1,0,0,1.1,0,2.4v17.3C0,20.9,1.1,22,2.4,22h12.2
				c1.3,0,2.4-1.1,2.4-2.4V6.3C17,5.6,16.7,5,16.3,4.6z M15,5.2h-3.3c-0.1,0-0.2-0.1-0.2-0.2v-3L15,5.2z M14.6,20.7H2.4
				c-0.6,0-1.1-0.5-1.1-1.1V2.4c0-0.6,0.5-1.1,1.1-1.1h7.8v3.7c0,0.8,0.7,1.5,1.5,1.5h4v13.2C15.7,20.2,15.2,20.7,14.6,20.7z"/>
			<path id="Shape_1_" d="M13.2,8.6H3.6c-0.4,0-0.7,0.3-0.7,0.6s0.3,0.6,0.7,0.6h9.6c0.4,0,0.7-0.3,0.7-0.6S13.5,8.6,13.2,8.6z
				 M13.2,12H3.6c-0.4,0-0.7,0.3-0.7,0.6s0.3,0.6,0.7,0.6h9.6c0.4,0,0.7-0.3,0.7-0.6S13.5,12,13.2,12z M6.7,15.5H3.6
				c-0.4,0-0.7,0.3-0.7,0.6s0.3,0.6,0.7,0.6h3.2c0.4,0,0.7-0.3,0.7-0.6S7.1,15.5,6.7,15.5z"/>
		</g>
	</g>
</g>
</svg>
