<?xml version="1.0" encoding="utf-8"?>
<!-- Generator: Adobe Illustrator 25.0.1, SVG Export Plug-In . SVG Version: 6.00 Build 0)  -->
<svg version="1.1" id="Layer_1" xmlns="http://www.w3.org/2000/svg" xmlns:xlink="http://www.w3.org/1999/xlink" x="0px" y="0px"
	 viewBox="0 0 38 38" style="enable-background:new 0 0 38 38;" xml:space="preserve">
<g id="rean-a-car">
	<g id="Location-review" transform="translate(-882, -488)">
		<g id="Group-25" transform="translate(842, 363)">
			<g id="donate" transform="translate(40, 125)">
				<path id="Shape" d="M30.5,0.1C30.4,0,30.3,0,30.2,0c-0.2,0-0.4,0.1-0.5,0.2c0,0-3.2,2.5-5.8,3.3c-0.6,0.2-1.5,0.4-2.4,0.7
					c-4.7,1.3-8.7,2.5-10,3.8C10,9.5,9,15.3,8.7,17.5C3.8,18.2,0,22.5,0,27.6C0,33.4,4.6,38,10.4,38s10.4-4.6,10.4-10.3
					c0-1.3-0.2-2.5-0.7-3.7c1.5-0.9,3.1-1.5,4.2-1.6c0.2,0,0.5,0,0.7,0c1.2-0.1,2.5-0.1,4.9-1.8c1.3-0.9,2-2.1,2.8-3.4
					c1.1-1.8,2.2-3.6,4.9-5.2c0.3-0.2,0.4-0.4,0.4-0.7C38,3,30.6,0.1,30.5,0.1z M10.4,36.3c-4.8,0-8.6-3.9-8.6-8.6S5.6,19,10.4,19
					c0.9,0,1.9,0.2,2.8,0.5c-0.7,0.5-1.4,1.2-1.9,1.9c-0.1-0.4-0.4-0.6-0.8-0.6c-0.5,0-0.9,0.4-0.9,0.9v0.9c-1.5,0.2-2.6,1.5-2.6,3
					c0,1.7,1.4,3,3,3h0.9c0.7,0,1.3,0.6,1.3,1.3s-0.6,1.3-1.3,1.3h-3c-0.5,0-0.9,0.4-0.9,0.9c0,0.5,0.4,0.9,0.9,0.9h1.7v0.9
					c0,0.5,0.4,0.9,0.9,0.9s0.9-0.4,0.9-0.9v-0.9c1.5-0.2,2.6-1.5,2.6-3c0-1.7-1.4-3-3-3H9.9c-0.7,0-1.3-0.6-1.3-1.3
					s0.6-1.3,1.3-1.3h0c0,0.6,0.2,1.1,0.6,1.5c0.8,0.8,1.8,1.1,2.9,1.1c1.7,0,3.6-0.8,5.1-1.8c0.3,0.9,0.5,1.8,0.5,2.7
					C19,32.4,15.1,36.3,10.4,36.3z M31.2,16.2c-0.7,1.2-1.3,2.2-2.3,2.9c-2,1.4-2.8,1.5-4,1.5c-0.3,0-0.5,0-0.8,0.1
					c-1.7,0.2-4.3,1.2-6.5,2.7c-1.9,1.3-4.6,2.2-5.8,1c-0.1-0.1-0.2-0.2-0.1-0.5c0.3-1.4,2.8-3.5,4.2-4.1c1.6-0.7,5.5-2.5,6.5-4.8
					c0.1-0.3,0.1-0.6-0.1-0.8c-0.6-0.9-1.5-1.3-2.1-1.5c-0.2-0.1-0.5-0.2-0.5-0.2c-0.2-0.4-0.7-0.5-1.1-0.3
					c-0.5,0.3-1.9,0.7-2.4,0.8c-0.2,0.1-0.4,0.2-0.6,0.5l-2.1,4.4c-1-0.3-2-0.5-3.1-0.5c0.5-3.1,1.4-7.3,2.2-8.1
					c1.1-1.1,6.2-2.5,9.2-3.4c1-0.3,1.9-0.5,2.5-0.7c2.3-0.7,4.9-2.5,5.9-3.3c1.4,0.7,5.7,3.3,5.9,8.9
					C33.5,12.5,32.2,14.6,31.2,16.2z M15.3,18.2l1.7-3.6c0.5-0.1,1.2-0.4,1.9-0.6c0.2,0.1,0.4,0.2,0.6,0.3c0.4,0.2,0.7,0.3,1.1,0.6
					C19.6,16.1,17.3,17.4,15.3,18.2z"/>
			</g>
		</g>
	</g>
</g>
</svg>
