<?xml version="1.0" encoding="utf-8"?>
<!-- Generator: Adobe Illustrator 25.0.1, SVG Export Plug-In . SVG Version: 6.00 Build 0)  -->
<svg version="1.1" id="Layer_1" xmlns="http://www.w3.org/2000/svg" xmlns:xlink="http://www.w3.org/1999/xlink" x="0px" y="0px"
	 viewBox="0 0 55 41" style="enable-background:new 0 0 55 41;" xml:space="preserve">
<g id="rean-a-car">
	<g id="Car-rental-homepage" transform="translate(-979, -3993)">
		<g id="Group-4" transform="translate(0, 3015)">
			<g id="email-_x28_5_x29_" transform="translate(979, 978)">
				<path id="Email" d="M46.4,0H8.6C3.9,0,0,3.8,0,8.5v23.9C0,37.2,3.9,41,8.6,41h37.8c4.7,0,8.6-3.8,8.6-8.5V8.5
					C55,3.8,51.1,0,46.4,0z M51.6,32.5c0,2.8-2.3,5.1-5.2,5.1H8.6c-2.8,0-5.2-2.3-5.2-5.1V8.5c0-2.8,2.3-5.1,5.2-5.1h37.8
					c2.8,0,5.2,2.3,5.2,5.1V32.5z M47.6,9.7L36.8,20.5l10.8,10.8c0.7,0.7,0.7,1.7,0,2.4c-0.3,0.3-0.8,0.5-1.2,0.5s-0.9-0.2-1.2-0.5
					L34.4,22.9l-5.7,5.6c-0.3,0.3-0.8,0.5-1.2,0.5s-0.9-0.2-1.2-0.5l-5.7-5.6L9.8,33.7C9.5,34,9,34.2,8.6,34.2S7.7,34,7.4,33.7
					c-0.7-0.7-0.7-1.7,0-2.4l10.8-10.8L7.4,9.7C6.7,9.1,6.7,8,7.4,7.3s1.8-0.7,2.4,0l17.7,17.6L45.2,7.3c0.7-0.7,1.8-0.7,2.4,0
					S48.3,9.1,47.6,9.7z"/>
			</g>
		</g>
	</g>
</g>
</svg>
