<?xml version="1.0" encoding="utf-8"?>
<!-- Generator: Adobe Illustrator 25.0.1, SVG Export Plug-In . SVG Version: 6.00 Build 0)  -->
<svg version="1.1" id="Layer_1" xmlns="http://www.w3.org/2000/svg" xmlns:xlink="http://www.w3.org/1999/xlink" x="0px" y="0px"
	 viewBox="0 0 24 24" style="enable-background:new 0 0 24 24;" xml:space="preserve">
<g id="rean-a-car">
	<g id="Car-rental" transform="translate(-1179, -3855)">
		<g id="Group-5" transform="translate(160.25, 3812.5)">
			<g id="facebook-copy-2" transform="translate(1019.384, 42.9198)">
				<path id="Combined-Shape" d="M11.6,0c6.4,0,11.6,5.2,11.6,11.6s-5.2,11.6-11.6,11.6S0,18.1,0,11.6S5.2,0,11.6,0z M11.6,1.1
					C5.8,1.1,1.1,5.8,1.1,11.6s4.7,10.6,10.6,10.6s10.6-4.7,10.6-10.6S17.5,1.1,11.6,1.1z M14.3,6.9v1.6h-0.9
					c-0.7,0-0.7,0.2-0.7,0.7v0.9h1.6l-0.2,1.6h-1.4v4.8h-2.1v-4.8H9.5v-1.6h1.1V9c0-1.3,0.6-2.1,2.3-2.1H14.3z"/>
			</g>
		</g>
	</g>
</g>
</svg>
