<?xml version="1.0" encoding="utf-8"?>
<!-- Generator: Adobe Illustrator 25.0.1, SVG Export Plug-In . SVG Version: 6.00 Build 0)  -->
<svg version="1.1" id="Layer_1" xmlns="http://www.w3.org/2000/svg" xmlns:xlink="http://www.w3.org/1999/xlink" x="0px" y="0px"
	 viewBox="0 0 24 24" style="enable-background:new 0 0 24 24;" xml:space="preserve">
<g id="rean-a-car">
	<g id="Car-rental-homepage" transform="translate(-1256, -4413)">
		<g id="Group-5" transform="translate(160.25, 4370.5)">
			<g id="instagram-copy-5" transform="translate(1095.9104, 42.9198)">
				<path id="Shape" d="M11.6,0C5.2,0,0,5.2,0,11.6s5.2,11.6,11.6,11.6s11.6-5.2,11.6-11.6S18.1,0,11.6,0z M11.6,22.2
					c-5.8,0-10.6-4.7-10.6-10.6S5.8,1.1,11.6,1.1s10.6,4.7,10.6,10.6S17.5,22.2,11.6,22.2z"/>
				<path id="Shape_1_" d="M14.8,6.4H8.5c-1.2,0-2.1,0.9-2.1,2.1v6.4c0,1.2,0.9,2.1,2.1,2.1h6.3c1.2,0,2.1-0.9,2.1-2.1V8.5
					C16.9,7.3,16,6.4,14.8,6.4z M13.7,7.9h1.6v1.6h-1.6V7.9z M11.6,9.5c1.2,0,2.1,0.9,2.1,2.1s-0.9,2.1-2.1,2.1s-2.1-0.9-2.1-2.1
					S10.5,9.5,11.6,9.5z M15.9,14.8c0,0.6-0.5,1.1-1.1,1.1H8.5c-0.6,0-1.1-0.5-1.1-1.1v-3.7h1.1c-0.3,1.7,0.8,3.4,2.5,3.7
					s3.4-0.8,3.7-2.5c0-0.2,0.1-0.4,0.1-0.6c0-0.2,0-0.4-0.1-0.5h1.1V14.8L15.9,14.8z"/>
			</g>
		</g>
	</g>
</g>
</svg>
