<?xml version="1.0" encoding="utf-8"?>
<!-- Generator: Adobe Illustrator 25.0.1, SVG Export Plug-In . SVG Version: 6.00 Build 0)  -->
<svg version="1.1" id="Layer_1" xmlns="http://www.w3.org/2000/svg" xmlns:xlink="http://www.w3.org/1999/xlink" x="0px" y="0px"
	 viewBox="0 0 22 22" style="enable-background:new 0 0 22 22;" xml:space="preserve">
<g id="rean-a-car">
	<g id="Location-review" transform="translate(-190, -2384)">
		<g id="Search-results-for-Key---Flaticon-12-_x28_1_x29_" transform="translate(190, 2384)">
			<path id="Shape" d="M19.9,2.1c-2.8-2.8-7.3-2.8-10,0C8,4,7.4,6.7,8.2,9.3l-8,8C0.1,17.4,0,17.5,0,17.7v3.6C0,21.7,0.3,22,0.6,22
				h3.6c0.2,0,0.3-0.1,0.5-0.2l0.9-0.9c0.1-0.1,0.2-0.3,0.2-0.5l-0.1-1l1.4-0.1c0.3,0,0.6-0.3,0.6-0.6l0.1-1.4l1,0.1
				c0.2,0,0.4,0,0.5-0.2c0.1-0.1,0.2-0.3,0.2-0.5v-1.2h1.2c0.2,0,0.3-0.1,0.5-0.2l1.6-1.6c2.5,0.8,5.3,0.2,7.2-1.7
				C22.7,9.3,22.7,4.8,19.9,2.1z M19,11.2c-1.6,1.6-4.1,2.1-6.2,1.3c-0.2-0.1-0.5,0-0.7,0.1l-1.7,1.7H8.8c-0.4,0-0.6,0.3-0.6,0.6
				v1.1L7.3,16c-0.2,0-0.3,0-0.5,0.1c-0.1,0.1-0.2,0.3-0.2,0.4L6.4,18L5,18.2c-0.2,0-0.3,0.1-0.4,0.2c-0.1,0.1-0.2,0.3-0.1,0.5
				l0.2,1.3L4,20.7H1.3V18l8.1-8.1c0.2-0.2,0.2-0.5,0.1-0.7C8.7,7.1,9.2,4.6,10.8,3c2.3-2.3,5.9-2.3,8.2,0
				C21.3,5.2,21.3,8.9,19,11.2L19,11.2z"/>
			<path id="Shape_1_" d="M18.1,3.9c-0.8-0.8-2-0.8-2.7,0c-0.8,0.8-0.8,2,0,2.7c0.8,0.8,2,0.8,2.7,0C18.9,5.9,18.9,4.7,18.1,3.9z
				 M17.2,5.7c-0.3,0.3-0.7,0.3-0.9,0c-0.3-0.3-0.3-0.7,0-0.9c0.3-0.3,0.7-0.3,0.9,0C17.4,5.1,17.4,5.5,17.2,5.7z"/>
		</g>
	</g>
</g>
</svg>
