<?xml version="1.0" encoding="utf-8"?>
<!-- Generator: Adobe Illustrator 25.0.1, SVG Export Plug-In . SVG Version: 6.00 Build 0)  -->
<svg version="1.1" id="Layer_1" xmlns="http://www.w3.org/2000/svg" xmlns:xlink="http://www.w3.org/1999/xlink" x="0px" y="0px"
	 viewBox="0 0 34 31" style="enable-background:new 0 0 34 31;" xml:space="preserve">
<g id="rean-a-car">
	<g id="Location-review" transform="translate(-884, -831)">
		<g id="Group-25" transform="translate(842, 363)">
			<g id="percentage-_x28_3_x29_" transform="translate(42, 468)">
				<path id="Path" d="M29.4,4.5C26.5,1.6,22.6,0,18.4,0c-4.2,0-8.2,1.7-11.2,4.7C6.9,5,6.9,5.5,7.3,5.9c0.3,0.3,0.9,0.3,1.2,0
					c2.6-2.7,6.2-4.2,10-4.2c7.7,0,13.9,6.2,13.9,13.8s-6.2,13.8-13.9,13.8S4.5,23.1,4.5,15.5v-0.2l1.4,1.4c0.2,0.2,0.4,0.2,0.6,0.2
					s0.4-0.1,0.6-0.2c0.3-0.3,0.3-0.9,0-1.2l-2.8-2.8c-0.3-0.3-0.9-0.3-1.2,0l-2.8,2.8c-0.3,0.3-0.3,0.9,0,1.2
					c0.3,0.3,0.9,0.3,1.2,0l1.4-1.4v0.2c0,4.1,1.6,8,4.6,11s6.9,4.5,11,4.5s8.1-1.6,11-4.5s4.6-6.8,4.6-11S32.4,7.5,29.4,4.5z"/>
				<path id="Path_1_" d="M22.9,9.9L12.6,20.1c-0.3,0.3-0.3,0.9,0,1.2c0.2,0.2,0.4,0.2,0.6,0.2c0.2,0,0.4-0.1,0.6-0.2L24.1,11
					c0.3-0.3,0.3-0.9,0-1.2C23.7,9.5,23.2,9.5,22.9,9.9z"/>
				<path id="Shape" d="M20.2,16.8c-1.2,1.2-1.2,3.1,0,4.2c0.6,0.6,1.3,0.9,2.1,0.9c0.8,0,1.6-0.3,2.1-0.9c1.2-1.2,1.2-3.1,0-4.2
					c-0.6-0.6-1.3-0.9-2.1-0.9C21.5,15.9,20.7,16.2,20.2,16.8z M23.2,19.8c-0.3,0.3-0.6,0.4-0.9,0.4c-0.4,0-0.7-0.1-0.9-0.4
					c-0.5-0.5-0.5-1.3,0-1.9c0.3-0.3,0.6-0.4,0.9-0.4c0.4,0,0.7,0.1,0.9,0.4C23.8,18.5,23.8,19.3,23.2,19.8z"/>
				<path id="Shape_1_" d="M14.5,9.1c-0.8,0-1.6,0.3-2.1,0.9c-0.6,0.6-0.9,1.3-0.9,2.1c0,0.8,0.3,1.6,0.9,2.1
					c0.6,0.6,1.3,0.9,2.1,0.9s1.6-0.3,2.1-0.9c0.6-0.6,0.9-1.3,0.9-2.1c0-0.8-0.3-1.6-0.9-2.1C16.1,9.4,15.3,9.1,14.5,9.1z M15.5,13
					c-0.3,0.3-0.6,0.4-0.9,0.4c-0.4,0-0.7-0.1-0.9-0.4c-0.3-0.3-0.4-0.6-0.4-0.9c0-0.4,0.1-0.7,0.4-0.9c0.3-0.3,0.6-0.4,0.9-0.4
					c0.4,0,0.7,0.1,0.9,0.4c0.3,0.3,0.4,0.6,0.4,0.9C15.9,12.5,15.7,12.8,15.5,13z"/>
			</g>
		</g>
	</g>
</g>
</svg>
