<?xml version="1.0" encoding="utf-8"?>
<!-- Generator: Adobe Illustrator 25.0.1, SVG Export Plug-In . SVG Version: 6.00 Build 0)  -->
<svg version="1.1" id="Layer_1" xmlns="http://www.w3.org/2000/svg" xmlns:xlink="http://www.w3.org/1999/xlink" x="0px" y="0px"
	 viewBox="0 0 55 55" style="enable-background:new 0 0 55 55;" xml:space="preserve">
<g id="rean-a-car">
	<g id="Car-rental-homepage" transform="translate(-406, -3981)">
		<g id="Group-4" transform="translate(0, 3015)">
			<g id="phone-call-_x28_3_x29_" transform="translate(406, 966)">
				<path id="Shape" d="M43.5,34.1c-1.1-1.2-2.5-1.8-3.9-1.8c-1.4,0-2.8,0.6-4,1.8l-3.7,3.7c-0.3-0.2-0.6-0.3-0.9-0.5
					c-0.4-0.2-0.8-0.4-1.2-0.6c-3.4-2.2-6.6-5-9.6-8.7c-1.5-1.8-2.4-3.4-3.1-4.9c1-0.9,1.8-1.8,2.7-2.6c0.3-0.3,0.7-0.7,1-1
					c2.4-2.4,2.4-5.6,0-8l-3.2-3.2c-0.4-0.4-0.7-0.7-1.1-1.1c-0.7-0.7-1.4-1.5-2.2-2.2c-1.1-1.1-2.5-1.7-3.9-1.7s-2.8,0.6-4,1.7
					c0,0,0,0,0,0l-4,4c-1.5,1.5-2.3,3.3-2.5,5.4c-0.3,3.4,0.7,6.5,1.5,8.6c1.9,5.1,4.7,9.8,8.9,14.8c5.1,6.1,11.2,10.9,18.2,14.2
					c2.7,1.3,6.2,2.8,10.2,3c0.2,0,0.5,0,0.7,0c2.7,0,4.9-1,6.7-2.9c0,0,0,0,0-0.1c0.6-0.7,1.3-1.4,2-2.1c0.5-0.5,1-1,1.5-1.5
					c1.2-1.2,1.8-2.6,1.8-4c0-1.4-0.6-2.8-1.8-4L43.5,34.1z M47.7,46.3C47.6,46.3,47.6,46.3,47.7,46.3c-0.5,0.5-0.9,0.9-1.4,1.4
					c-0.8,0.7-1.5,1.5-2.2,2.3c-1.2,1.3-2.6,1.8-4.4,1.8c-0.2,0-0.4,0-0.5,0c-3.5-0.2-6.7-1.6-9.1-2.7c-6.6-3.2-12.4-7.7-17.2-13.4
					c-4-4.8-6.6-9.2-8.4-13.9c-1.1-2.9-1.5-5.1-1.3-7.3c0.1-1.4,0.6-2.5,1.6-3.4l4-4c0.6-0.5,1.2-0.8,1.8-0.8c0.7,0,1.3,0.4,1.7,0.8
					c0,0,0,0,0,0c0.7,0.7,1.4,1.3,2.1,2.1c0.4,0.4,0.7,0.7,1.1,1.1l3.2,3.2c1.2,1.2,1.2,2.4,0,3.6c-0.3,0.3-0.7,0.7-1,1
					c-1,1-1.9,1.9-2.9,2.8c0,0,0,0-0.1,0.1c-1,1-0.8,2-0.6,2.6c0,0,0,0.1,0,0.1c0.8,2,2,3.9,3.8,6.1l0,0c3.2,3.9,6.6,7,10.3,9.4
					c0.5,0.3,1,0.5,1.4,0.8c0.4,0.2,0.8,0.4,1.2,0.6c0,0,0.1,0.1,0.1,0.1c0.4,0.2,0.8,0.3,1.2,0.3c1,0,1.6-0.6,1.8-0.8l4-4
					c0.4-0.4,1-0.9,1.8-0.9c0.7,0,1.3,0.5,1.7,0.8c0,0,0,0,0,0l6.4,6.4C48.8,43.8,48.8,45.1,47.7,46.3z"/>
				<path id="Path" d="M29.7,13.1c3,0.5,5.8,2,8,4.2s3.6,5,4.2,8c0.1,0.8,0.8,1.3,1.5,1.3c0.1,0,0.2,0,0.3,0c0.9-0.1,1.4-1,1.3-1.8
					c-0.6-3.7-2.4-7-5-9.7c-2.7-2.7-6-4.4-9.7-5c-0.9-0.1-1.7,0.4-1.8,1.3C28.3,12.1,28.9,12.9,29.7,13.1z"/>
				<path id="Path_1_" d="M55,24.3c-1-6.1-3.9-11.6-8.3-16s-9.9-7.2-16-8.3c-0.8-0.2-1.7,0.4-1.8,1.3c-0.1,0.9,0.4,1.7,1.3,1.8
					c5.4,0.9,10.4,3.5,14.3,7.4c3.9,3.9,6.5,8.9,7.4,14.3c0.1,0.8,0.8,1.3,1.5,1.3c0.1,0,0.2,0,0.3,0C54.5,25.9,55.1,25.1,55,24.3z"
					/>
			</g>
		</g>
	</g>
</g>
</svg>
