<?xml version="1.0" encoding="utf-8"?>
<!-- Generator: Adobe Illustrator 25.0.1, SVG Export Plug-In . SVG Version: 6.00 Build 0)  -->
<svg version="1.1" id="Layer_1" xmlns="http://www.w3.org/2000/svg" xmlns:xlink="http://www.w3.org/1999/xlink" x="0px" y="0px"
	 viewBox="0 0 27 38" style="enable-background:new 0 0 27 38;" xml:space="preserve">
<g id="rean-a-car">
	<g id="Location-review" transform="translate(-889, -669)">
		<g id="Group-25" transform="translate(842, 363)">
			<g id="touch" transform="translate(47, 306)">
				<path id="Shape" d="M6.8,23.9c1.1-1.1,1.1-2.9,0-4c-0.5-0.5-1.2-0.8-2-0.8c-0.4,0-0.9,0.1-1.2,0.3c-1.3-1.9-2-4.2-2-6.5
					c0-6,4.7-11,10.7-11.4c0.4,0,0.7-0.4,0.7-0.8c0-0.4-0.4-0.7-0.8-0.7C5.3,0.4,0,6,0,12.9c0,2.7,0.8,5.3,2.4,7.5
					c-0.7,1.1-0.6,2.6,0.4,3.5c0.5,0.5,1.2,0.8,2,0.8S6.2,24.5,6.8,23.9z M3.8,21c0.3-0.3,0.6-0.4,0.9-0.4c0.3,0,0.7,0.1,0.9,0.4
					c0.5,0.5,0.5,1.4,0,1.9c-0.5,0.5-1.4,0.5-1.9,0C3.3,22.4,3.3,21.5,3.8,21z"/>
				<path id="Shape_1_" d="M24.3,25.7c-0.5,0-0.9,0.1-1.3,0.3c-0.3-1.1-1.3-1.9-2.5-1.9c-0.8,0-1.4,0.3-1.9,0.8
					c-0.1-0.1-0.3-0.3-0.4-0.4c1.7-0.8,3.3-1.9,4.5-3.3c2-2.3,3.1-5.3,3.1-8.4c0-2.7-0.8-5.3-2.4-7.5C24.1,4.3,24,2.8,23,1.8
					c-1.1-1.1-2.9-1.1-4,0c-1.1,1.1-1.1,2.9,0,4c0.6,0.6,1.3,0.8,2,0.8c0.4,0,0.8-0.1,1.2-0.3c1.3,1.9,2,4.2,2,6.5
					c0,5.4-3.6,9.9-8.8,11.1v-4c2.9-1.1,5-3.9,5-7.1c0-4.2-3.4-7.6-7.6-7.6c-4.2,0-7.6,3.4-7.6,7.6c0,1.6,0.5,3.2,1.5,4.5
					c0.9,1.1,2,2,3.4,2.6v10.9l-0.9-1.5c-0.8-1.3-2.4-1.7-3.7-1c-1.2,0.7-1.7,2.3-1.1,3.6l2.8,5.6C7.3,37.8,7.6,38,7.9,38
					c0.1,0,0.2,0,0.3-0.1c0.4-0.2,0.5-0.6,0.3-1l-2.8-5.6c-0.3-0.6-0.1-1.3,0.5-1.6c0.6-0.3,1.4-0.1,1.7,0.4l2.3,3.8
					c0.2,0.3,0.5,0.4,0.8,0.3c0.3-0.1,0.5-0.4,0.5-0.7v-17c0-0.6,0.5-1.2,1.2-1.2s1.2,0.5,1.2,1.2v2.9c0,0,0,0,0,0v11.2
					c0,0.4,0.3,0.7,0.7,0.7c0.4,0,0.7-0.3,0.7-0.7v-3.7c0-0.6,0.5-1.2,1.2-1.2c0.6,0,1.2,0.5,1.2,1.2v4c0,0.4,0.3,0.7,0.7,0.7
					c0.4,0,0.7-0.3,0.7-0.7v-4c0-0.6,0.5-1.2,1.2-1.2s1.2,0.5,1.2,1.2v4.1c0,0.4,0.3,0.7,0.7,0.7s0.7-0.3,0.7-0.7v-2.5
					c0-0.6,0.5-1.2,1.2-1.2s1.2,0.5,1.2,1.2v8.9c0,0.4,0.3,0.7,0.7,0.7s0.7-0.3,0.7-0.7v-8.9C27,26.9,25.8,25.7,24.3,25.7L24.3,25.7
					z M20.1,4.8c-0.5-0.5-0.5-1.4,0-1.9c0.3-0.3,0.6-0.4,0.9-0.4s0.7,0.1,0.9,0.4c0.5,0.5,0.5,1.4,0,1.9C21.4,5.3,20.6,5.3,20.1,4.8
					z M6.8,12.9c0-3.4,2.7-6.1,6.1-6.1c3.4,0,6.1,2.7,6.1,6.1c0,2.4-1.4,4.5-3.5,5.5v-1.9c0-0.4-0.1-0.8-0.3-1.2
					c0.7-0.6,1-1.5,1-2.5c0-1.9-1.5-3.4-3.4-3.4c-1.9,0-3.4,1.5-3.4,3.4c0,0.9,0.4,1.8,1,2.4c-0.2,0.4-0.3,0.8-0.3,1.2v1.9
					C8.1,17.3,6.8,15.2,6.8,12.9z M11.5,14.2c-0.3-0.4-0.5-0.8-0.5-1.3c0-1.1,0.9-1.9,1.9-1.9c1.1,0,1.9,0.9,1.9,1.9
					c0,0.5-0.2,1-0.6,1.4c-0.4-0.2-0.9-0.4-1.4-0.4C12.4,13.8,11.9,14,11.5,14.2z"/>
				<path id="Path" d="M15.5,1.7c0.2,0,0.4-0.1,0.5-0.2c0.1-0.1,0.2-0.3,0.2-0.5c0-0.2-0.1-0.4-0.2-0.5c-0.1-0.1-0.3-0.2-0.5-0.2
					c-0.2,0-0.4,0.1-0.5,0.2c-0.1,0.1-0.2,0.3-0.2,0.5c0,0.2,0.1,0.4,0.2,0.5C15.1,1.7,15.3,1.7,15.5,1.7z"/>
			</g>
		</g>
	</g>
</g>
</svg>
