<?xml version="1.0" encoding="utf-8"?>
<!-- Generator: Adobe Illustrator 25.0.1, SVG Export Plug-In . SVG Version: 6.00 Build 0)  -->
<svg version="1.1" id="Layer_1" xmlns="http://www.w3.org/2000/svg" xmlns:xlink="http://www.w3.org/1999/xlink" x="0px" y="0px"
	 viewBox="0 0 25 24" style="enable-background:new 0 0 25 24;" xml:space="preserve">
<g id="rean-a-car">
	<g id="Car-rental-homepage" transform="translate(-1217, -4413)">
		<g id="Group-5" transform="translate(160.25, 4370.5)">
			<g id="Search-results-for-Youtube---Flaticon-3" transform="translate(1057.6472, 42.9198)">
				<path id="Shape" d="M11.2,9.5h0.2c0.5,0,0.9-0.4,0.9-0.9V7.2c0-0.5-0.4-0.9-0.9-0.9h-0.2c-0.5,0-0.9,0.4-0.9,0.9v1.4
					C10.3,9.1,10.7,9.5,11.2,9.5L11.2,9.5z M10.9,7.2c0-0.2,0.1-0.3,0.3-0.3c0.2,0,0.3,0.1,0.3,0.3v1.5c0,0.2-0.1,0.3-0.3,0.3
					c-0.2,0-0.3-0.1-0.3-0.3V7.2L10.9,7.2z M8.6,9.4h0.8V7.7l0.9-2.4H9.5L9,6.9L8.5,5.4H7.7l0.9,2.4L8.6,9.4z M13.3,9.5
					c0.3,0,0.6-0.2,0.8-0.4v0.3h0.6V6.4h-0.6v2.4c0,0-0.2,0.3-0.4,0.3s-0.2-0.2-0.2-0.2V6.4h-0.7v2.7C12.9,9.3,13.1,9.5,13.3,9.5
					L13.3,9.5z M12.9,13c-0.1,0-0.2,0.1-0.3,0.2v2.2c0.1,0.1,0.2,0.1,0.3,0.1c0.3,0,0.3-0.4,0.3-0.4v-1.8C13.2,13.4,13.2,13,12.9,13
					L12.9,13z"/>
				<path id="Shape_1_" d="M11.6,0C5.2,0,0,5.2,0,11.6s5.2,11.6,11.6,11.6s11.6-5.2,11.6-11.6S18.1,0,11.6,0z M11.6,22.2
					c-5.8,0-10.6-4.7-10.6-10.6S5.8,1.1,11.6,1.1s10.6,4.7,10.6,10.6S17.5,22.2,11.6,22.2z"/>
				<path id="Path" d="M15.4,13c-0.3,0-0.3,0.4-0.3,0.4v0.5h0.7v-0.5C15.8,13.4,15.8,13,15.4,13z"/>
				<path id="Shape_2_" d="M15.7,10.2C15.7,10.2,15.7,10.2,15.7,10.2L15.7,10.2c0,0-2-0.1-4-0.1s-4,0.1-4,0.1
					c-0.9,0-1.6,0.7-1.6,1.5c0,0,0,0,0,0.1c-0.1,0.7-0.2,1.3-0.2,2c0,0.7,0.1,1.4,0.2,2c0,0.9,0.7,1.6,1.6,1.6c0,0,0,0,0.1,0
					c0,0,2,0.1,4,0.1s4-0.1,4-0.1c0.9,0,1.6-0.7,1.6-1.5c0,0,0,0,0-0.1c0.1-0.7,0.2-1.4,0.2-2c0-0.7-0.1-1.4-0.2-2
					C17.3,10.9,16.5,10.2,15.7,10.2L15.7,10.2z M9.3,11.9H8.5v4.1H7.7v-4.1H6.9v-0.7h2.4L9.3,11.9L9.3,11.9z M11.3,16.1h-0.7v-0.3
					c-0.2,0.2-0.5,0.3-0.8,0.4c-0.2,0-0.5-0.2-0.5-0.4v-3.2H10v3c0,0,0,0.2,0.2,0.2c0.2,0,0.4-0.3,0.4-0.3v-2.9h0.7L11.3,16.1
					L11.3,16.1z M13.3,16.1c-0.3,0-0.5-0.1-0.7-0.3v0.3h-0.7v-4.8h0.7v1.6c0.2-0.2,0.4-0.3,0.7-0.4c0.4,0,0.6,0.4,0.6,0.8l0,2
					C13.9,15.3,13.9,16.1,13.3,16.1L13.3,16.1z M16.5,14.4h-1.4v0.8c0,0,0,0.4,0.3,0.4c0.3,0,0.3-0.4,0.3-0.4v-0.4h0.7v0.6
					c-0.1,0.5-0.5,0.8-1,0.7c-0.5,0-0.9-0.3-1.1-0.7v-2c0-0.5,0.4-0.9,0.9-0.9c0,0,0.1,0,0.1,0c0.5-0.1,0.9,0.3,1,0.7
					c0,0.1,0,0.1,0,0.2L16.5,14.4L16.5,14.4z"/>
			</g>
		</g>
	</g>
</g>
</svg>
